<svg xmlns="http://www.w3.org/2000/svg" viewBox="0 0 23.75 20.01"><defs><style>.cls-1{fill:none;stroke:#fff;stroke-linecap:round;stroke-linejoin:round;}</style></defs><title>icon_like_white</title><g id="Слой_2" data-name="Слой 2"><g id="Layer_1" data-name="Layer 1"><path class="cls-1" d="M.5,16.16V9.74A1.54,1.54,0,0,1,2,8.2H5.91v9.49H2A1.54,1.54,0,0,1,.5,16.16Zm22.66-4.69L21.23,17.1a3.53,3.53,0,0,1-3.34,2.41h-5.1a7.27,7.27,0,0,1-2.46-.42h-.06L5.91,17.72V8.09L6,8,14.92.61h0A.53.53,0,0,1,15.23.5a.45.45,0,0,1,.4.23,2.07,2.07,0,0,1,.25,1.42l-1,5.07-.2,1h5.89a2.69,2.69,0,0,1,2.69,2.69A2,2,0,0,1,23.16,11.46Z"/></g></g></svg>