<svg viewBox="0 0 160 136" xmlns="http://www.w3.org/2000/svg" xmlns:xlink="http://www.w3.org/1999/xlink"><svg height="32" width="32" viewBox="-4 -4 32 32" id="add_24" x="72" xmlns="http://www.w3.org/2000/svg"><g fill="none" fill-rule="evenodd"><path d="M0 0h24v24H0z"></path><path d="M12 3a.9.9 0 01.9.9v7.2h7.2a.9.9 0 110 1.8l-7.2-.001V20.1a.9.9 0 11-1.8 0V12.9l-7.2.001a.9.9 0 110-1.8h7.2V3.9A.9.9 0 0112 3z" fill="#4986cc" fill-rule="nonzero"></path></g></svg><svg height="32" width="32" viewBox="-4 -4 32 32" id="add_outline_24" x="72" y="32" xmlns="http://www.w3.org/2000/svg"><g fill="none" fill-rule="evenodd"><path d="M0 0h24v24H0z"></path><path d="M12 3a.9.9 0 01.9.9v7.2h7.2a.9.9 0 110 1.8l-7.2-.001V20.1a.9.9 0 11-1.8 0V12.9l-7.2.001a.9.9 0 110-1.8h7.2V3.9A.9.9 0 0112 3z" fill="#2c2d2e" fill-rule="nonzero"></path></g></svg><svg height="32" width="32" viewBox="-4 -4 32 32" id="artist_follow_24" y="72" xmlns="http://www.w3.org/2000/svg"><g fill="none" fill-rule="evenodd"><path d="M0 0h24v24H0z"></path><path d="M13 11h5a1 1 0 010 2h-5v5a1 1 0 01-2 0v-5H6a1 1 0 010-2h5V6a1 1 0 012 0z" fill="#fff" fill-rule="nonzero"></path></g></svg><svg height="32" width="32" viewBox="-4 -4 32 32" id="artist_followed_24" x="32" y="72" xmlns="http://www.w3.org/2000/svg"><g fill="none" fill-rule="evenodd"><path d="M0 0h24v24H0z" opacity=".1"></path><path d="M9 16.2l-3.5-3.5a.99.99 0 00-1.4 1.4l4.193 4.193a1 1 0 001.414 0L20.3 7.7a.99.99 0 00-1.4-1.4z" fill="#fff" fill-rule="nonzero"></path></g></svg><svg height="32" width="32" viewBox="-4 -4 32 32" id="done_24" x="64" y="72" xmlns="http://www.w3.org/2000/svg"><g fill="none" fill-rule="evenodd"><path d="M0 0h24v24H0z"></path><path d="M19.864 5.364a.9.9 0 111.272 1.272l-11.5 11.5a.9.9 0 01-1.272 0l-5-5a.9.9 0 111.272-1.272L9 16.227z" fill="#4986cc" fill-rule="nonzero"></path></g></svg><svg height="32" width="32" viewBox="-4 -4 32 32" id="done_outline_24" x="104" xmlns="http://www.w3.org/2000/svg"><g fill="none" fill-rule="evenodd"><path d="M0 0h24v24H0z"></path><path d="M19.864 5.364a.9.9 0 111.272 1.272l-11.5 11.5a.9.9 0 01-1.272 0l-5-5a.9.9 0 111.272-1.272L9 16.227z" fill="#2c2d2e" fill-rule="nonzero"></path></g></svg><svg height="36" width="36" viewBox="-4 -4 36 36" id="done_outline_blue_28" xmlns="http://www.w3.org/2000/svg"><g fill="none" fill-rule="evenodd"><path d="M0 0h28v28H0z" opacity=".1"></path><path d="M11 18.586l-5.293-5.293a1 1 0 10-1.414 1.414l6 6a1 1 0 001.414 0l12-12a1 1 0 10-1.414-1.414z" fill="#528bcc"></path></g></svg><svg height="36" width="36" viewBox="-4 -4 36 36" id="done_outline_white_28" x="36" xmlns="http://www.w3.org/2000/svg"><g fill="none" fill-rule="evenodd"><path d="M0 0h28v28H0z" opacity=".1"></path><path d="M11 18.586l-5.293-5.293a1 1 0 10-1.414 1.414l6 6a1 1 0 001.414 0l12-12a1 1 0 10-1.414-1.414z" fill="#fff" fill-rule="nonzero"></path></g></svg><svg height="36" width="36" viewBox="-4 -4 36 36" id="music_mic_outline_28" y="36" xmlns="http://www.w3.org/2000/svg"><g fill="none" fill-rule="evenodd"><path d="M0 0h28v28H0z"></path><path d="M14.345 16.771a.996.996 0 011.318 1.494L9.179 24.22a3.117 3.117 0 01-4.4-4.399l4.96-6.484a.996.996 0 011.494 1.318l-4.96 6.484a1.125 1.125 0 001.588 1.587zm-.088-3.028a6 6 0 118.486-8.486 6 6 0 01-8.486 8.486zm1.415-1.315a4 4 0 105.656-5.656 4 4 0 00-5.656 5.656z" fill="#aeb7c2" fill-rule="nonzero"></path></g></svg><svg height="32" width="32" viewBox="-4 -4 32 32" id="pause_24" x="104" y="32" xmlns="http://www.w3.org/2000/svg"><g fill="none" fill-rule="evenodd"><path d="M0 0h24v24H0z"></path><path d="M8.712 5c.448 0 .61.047.774.134a.913.913 0 01.38.38c.087.164.134.326.134.774v11.424c0 .448-.047.61-.134.774a.913.913 0 01-.38.38c-.164.087-.326.134-.774.134H6.788c-.448 0-.61-.047-.774-.134a.913.913 0 01-.38-.38c-.087-.164-.134-.326-.134-.774V6.288c0-.448.047-.61.134-.774a.913.913 0 01.38-.38C6.178 5.047 6.34 5 6.788 5zm8 0c.448 0 .61.047.774.134a.913.913 0 01.38.38c.087.164.134.326.134.774v11.424c0 .448-.047.61-.134.774a.913.913 0 01-.38.38c-.164.087-.326.134-.774.134h-1.924c-.448 0-.61-.047-.774-.134a.913.913 0 01-.38-.38c-.087-.164-.134-.326-.134-.774V6.288c0-.448.047-.61.134-.774a.913.913 0 01.38-.38c.164-.087.326-.134.774-.134z" fill="#ffffff" fill-rule="nonzero"></path></g></svg><svg height="32" width="32" viewBox="-4 -4 32 32" id="pause_on_cover_24" x="104" y="64" xmlns="http://www.w3.org/2000/svg"><g fill="none" fill-rule="evenodd"><path d="M0 0h24v24H0z"></path><path d="M8.712 5c.448 0 .61.047.774.134a.913.913 0 01.38.38c.087.164.134.326.134.774v11.424c0 .448-.047.61-.134.774a.913.913 0 01-.38.38c-.164.087-.326.134-.774.134H6.788c-.448 0-.61-.047-.774-.134a.913.913 0 01-.38-.38c-.087-.164-.134-.326-.134-.774V6.288c0-.448.047-.61.134-.774a.913.913 0 01.38-.38C6.178 5.047 6.34 5 6.788 5zm8 0c.448 0 .61.047.774.134a.913.913 0 01.38.38c.087.164.134.326.134.774v11.424c0 .448-.047.61-.134.774a.913.913 0 01-.38.38c-.164.087-.326.134-.774.134h-1.924c-.448 0-.61-.047-.774-.134a.913.913 0 01-.38-.38c-.087-.164-.134-.326-.134-.774V6.288c0-.448.047-.61.134-.774a.913.913 0 01.38-.38c.164-.087.326-.134.774-.134z" fill="#3f8ae0" fill-rule="nonzero"></path></g></svg><svg height="32" width="32" viewBox="-4 -4 32 32" id="pause_overlay_24" y="104" xmlns="http://www.w3.org/2000/svg"><g fill="none" fill-rule="evenodd"><path d="M0 0h24v24H0z"></path><path d="M8.712 5c.448 0 .61.047.774.134a.913.913 0 01.38.38c.087.164.134.326.134.774v11.424c0 .448-.047.61-.134.774a.913.913 0 01-.38.38c-.164.087-.326.134-.774.134H6.788c-.448 0-.61-.047-.774-.134a.913.913 0 01-.38-.38c-.087-.164-.134-.326-.134-.774V6.288c0-.448.047-.61.134-.774a.913.913 0 01.38-.38C6.178 5.047 6.34 5 6.788 5zm8 0c.448 0 .61.047.774.134a.913.913 0 01.38.38c.087.164.134.326.134.774v11.424c0 .448-.047.61-.134.774a.913.913 0 01-.38.38c-.164.087-.326.134-.774.134h-1.924c-.448 0-.61-.047-.774-.134a.913.913 0 01-.38-.38c-.087-.164-.134-.326-.134-.774V6.288c0-.448.047-.61.134-.774a.913.913 0 01.38-.38c.164-.087.326-.134.774-.134z" fill="#2c2d2e" fill-rule="nonzero"></path></g></svg><svg height="32" width="32" viewBox="-4 -4 32 32" id="play_24" x="32" y="104" xmlns="http://www.w3.org/2000/svg"><g fill="none" fill-rule="evenodd"><path d="M0 0h24v24H0z"></path><path d="M8.133 5.105L18.63 11.35a.75.75 0 010 1.289L8.135 18.894A.75.75 0 017 18.25V5.75a.75.75 0 011.133-.645z" fill="#ffffff" fill-rule="nonzero"></path></g></svg><svg height="32" width="32" viewBox="-4 -4 32 32" id="play_on_cover_24" x="64" y="104" xmlns="http://www.w3.org/2000/svg"><g fill="none" fill-rule="evenodd"><path d="M0 0h24v24H0z"></path><path d="M8.133 5.105L18.63 11.35a.75.75 0 010 1.289L8.135 18.894A.75.75 0 017 18.25V5.75a.75.75 0 011.133-.645z" fill="#3f8ae0" fill-rule="nonzero"></path></g></svg><svg height="32" width="32" viewBox="-4 -4 32 32" id="play_overlay_24" x="96" y="104" xmlns="http://www.w3.org/2000/svg"><g fill="none" fill-rule="evenodd"><path d="M0 0h24v24H0z"></path><path d="M8.133 5.105L18.63 11.35a.75.75 0 010 1.289L8.135 18.894A.75.75 0 017 18.25V5.75a.75.75 0 011.133-.645z" fill="#2c2d2e" fill-rule="nonzero"></path></g></svg><svg height="24" width="24" viewBox="-4 -4 24 24" id="search_outline_16" x="136" xmlns="http://www.w3.org/2000/svg"><g fill="none" fill-rule="evenodd" opacity=".92"><path d="M0 0h16v16H0z"></path><path d="M6.5 1a5.5 5.5 0 014.383 8.823l3.896 3.9a.75.75 0 01-1.061 1.06l-3.895-3.9A5.5 5.5 0 116.5 1zm0 1.5a4 4 0 100 8 4 4 0 000-8z" fill="#3f8ae0" fill-rule="nonzero"></path></g></svg><svg height="36" width="36" viewBox="-4 -4 36 36" id="song_outline_28" x="36" y="36" xmlns="http://www.w3.org/2000/svg"><g fill="none" fill-rule="evenodd"><path d="M0 0h28v28H0z"></path><path d="M19.78 3.025A1 1 0 0121 4v2.102a3.6 3.6 0 01-2.672 3.479L15 10.468v9.926c0 4.687-4.583 7.1-7.073 4.61C5.351 22.426 7.82 18.2 13 17.942V7.93c-.027-1.922.91-3.288 2.684-3.88.641-.213 1.993-.551 4.096-1.026zM13 19.944c-3.538.196-4.845 2.459-3.659 3.645C10.484 24.732 13 23.408 13 20.394zm6-14.688c-1.348.315-2.249.548-2.684.693-.934.311-1.331.89-1.316 1.968v.481l2.812-.75A1.6 1.6 0 0019 6.102z" fill="#aeb7c2" fill-rule="nonzero"></path></g></svg></svg>