<svg viewBox="0 0 152 136" xmlns="http://www.w3.org/2000/svg" xmlns:xlink="http://www.w3.org/1999/xlink"><svg width="152" height="136" viewBox="-4 -4 152 136" id="img_dark_theme" xmlns="http://www.w3.org/2000/svg"><defs><filter x="-28.8%" y="-34.1%" width="157.7%" height="168.2%" filterUnits="objectBoundingBox" id="img_dark_theme__a"><feOffset in="SourceAlpha" result="shadowOffsetOuter1"></feOffset><feGaussianBlur stdDeviation="10" in="shadowOffsetOuter1" result="shadowBlurOuter1"></feGaussianBlur><feColorMatrix values="0 0 0 0 0.905882353 0 0 0 0 0.796078431 0 0 0 0 0.321568627 0 0 0 0.24 0" in="shadowBlurOuter1"></feColorMatrix></filter><filter x="-7.8%" y="-7.8%" width="115.6%" height="115.6%" filterUnits="objectBoundingBox" id="img_dark_theme__d"><feOffset dx="1" dy="1" in="SourceAlpha" result="shadowOffsetInner1"></feOffset><feComposite in="shadowOffsetInner1" in2="SourceAlpha" operator="arithmetic" k2="-1" k3="1" result="shadowInnerInner1"></feComposite><feColorMatrix values="0 0 0 0 0.768016582 0 0 0 0 0.639546221 0 0 0 0 0.188064666 0 0 0 1 0" in="shadowInnerInner1"></feColorMatrix></filter><filter x="-11.1%" y="-11.1%" width="122.2%" height="122.2%" filterUnits="objectBoundingBox" id="img_dark_theme__f"><feOffset dx="1" dy="1" in="SourceAlpha" result="shadowOffsetInner1"></feOffset><feComposite in="shadowOffsetInner1" in2="SourceAlpha" operator="arithmetic" k2="-1" k3="1" result="shadowInnerInner1"></feComposite><feColorMatrix values="0 0 0 0 0.768016582 0 0 0 0 0.639546221 0 0 0 0 0.188064666 0 0 0 1 0" in="shadowInnerInner1"></feColorMatrix></filter><filter x="-19.4%" y="-19.4%" width="138.9%" height="138.9%" filterUnits="objectBoundingBox" id="img_dark_theme__h"><feOffset dx="1" dy="1" in="SourceAlpha" result="shadowOffsetInner1"></feOffset><feComposite in="shadowOffsetInner1" in2="SourceAlpha" operator="arithmetic" k2="-1" k3="1" result="shadowInnerInner1"></feComposite><feColorMatrix values="0 0 0 0 0.768016582 0 0 0 0 0.639546221 0 0 0 0 0.188064666 0 0 0 1 0" in="shadowInnerInner1"></feColorMatrix></filter><filter x="-19.4%" y="-19.4%" width="138.9%" height="138.9%" filterUnits="objectBoundingBox" id="img_dark_theme__j"><feOffset dx="1" dy="1" in="SourceAlpha" result="shadowOffsetInner1"></feOffset><feComposite in="shadowOffsetInner1" in2="SourceAlpha" operator="arithmetic" k2="-1" k3="1" result="shadowInnerInner1"></feComposite><feColorMatrix values="0 0 0 0 0.768016582 0 0 0 0 0.639546221 0 0 0 0 0.188064666 0 0 0 1 0" in="shadowInnerInner1"></feColorMatrix></filter><filter x="-19.4%" y="-19.4%" width="138.9%" height="138.9%" filterUnits="objectBoundingBox" id="img_dark_theme__l"><feOffset dx="1" dy="1" in="SourceAlpha" result="shadowOffsetInner1"></feOffset><feComposite in="shadowOffsetInner1" in2="SourceAlpha" operator="arithmetic" k2="-1" k3="1" result="shadowInnerInner1"></feComposite><feColorMatrix values="0 0 0 0 0.768016582 0 0 0 0 0.639546221 0 0 0 0 0.188064666 0 0 0 1 0" in="shadowInnerInner1"></feColorMatrix></filter><filter x="-19.4%" y="-19.4%" width="138.9%" height="138.9%" filterUnits="objectBoundingBox" id="img_dark_theme__n"><feOffset dx="1" dy="1" in="SourceAlpha" result="shadowOffsetInner1"></feOffset><feComposite in="shadowOffsetInner1" in2="SourceAlpha" operator="arithmetic" k2="-1" k3="1" result="shadowInnerInner1"></feComposite><feColorMatrix values="0 0 0 0 0.768016582 0 0 0 0 0.639546221 0 0 0 0 0.188064666 0 0 0 1 0" in="shadowInnerInner1"></feColorMatrix></filter><filter x="-19.4%" y="-19.4%" width="138.9%" height="138.9%" filterUnits="objectBoundingBox" id="img_dark_theme__p"><feOffset dx="1" dy="1" in="SourceAlpha" result="shadowOffsetInner1"></feOffset><feComposite in="shadowOffsetInner1" in2="SourceAlpha" operator="arithmetic" k2="-1" k3="1" result="shadowInnerInner1"></feComposite><feColorMatrix values="0 0 0 0 0.768016582 0 0 0 0 0.639546221 0 0 0 0 0.188064666 0 0 0 1 0" in="shadowInnerInner1"></feColorMatrix></filter><filter x="-19.4%" y="-19.4%" width="138.9%" height="138.9%" filterUnits="objectBoundingBox" id="img_dark_theme__r"><feOffset dx="1" dy="1" in="SourceAlpha" result="shadowOffsetInner1"></feOffset><feComposite in="shadowOffsetInner1" in2="SourceAlpha" operator="arithmetic" k2="-1" k3="1" result="shadowInnerInner1"></feComposite><feColorMatrix values="0 0 0 0 0.768016582 0 0 0 0 0.639546221 0 0 0 0 0.188064666 0 0 0 1 0" in="shadowInnerInner1"></feColorMatrix></filter><filter x="-11.1%" y="-11.1%" width="122.2%" height="122.2%" filterUnits="objectBoundingBox" id="img_dark_theme__t"><feOffset dx="1" dy="1" in="SourceAlpha" result="shadowOffsetInner1"></feOffset><feComposite in="shadowOffsetInner1" in2="SourceAlpha" operator="arithmetic" k2="-1" k3="1" result="shadowInnerInner1"></feComposite><feColorMatrix values="0 0 0 0 0.768016582 0 0 0 0 0.639546221 0 0 0 0 0.188064666 0 0 0 1 0" in="shadowInnerInner1"></feColorMatrix></filter><filter x="-13%" y="-13%" width="125.9%" height="125.9%" filterUnits="objectBoundingBox" id="img_dark_theme__v"><feOffset dx="1" dy="1" in="SourceAlpha" result="shadowOffsetInner1"></feOffset><feComposite in="shadowOffsetInner1" in2="SourceAlpha" operator="arithmetic" k2="-1" k3="1" result="shadowInnerInner1"></feComposite><feColorMatrix values="0 0 0 0 0.768016582 0 0 0 0 0.639546221 0 0 0 0 0.188064666 0 0 0 1 0" in="shadowInnerInner1"></feColorMatrix></filter><circle id="img_dark_theme__c" cx="7.071" cy="55.929" r="3.214"></circle><circle id="img_dark_theme__e" cx="29.25" cy="61.393" r="2.25"></circle><circle id="img_dark_theme__g" cx="7.071" cy="38.571" r="1.286"></circle><circle id="img_dark_theme__i" cx="63" cy="24.429" r="1.286"></circle><circle id="img_dark_theme__k" cx="50.143" cy="55.929" r="1.286"></circle><circle id="img_dark_theme__m" cx="59.143" cy="61.714" r="1.286"></circle><circle id="img_dark_theme__o" cx="19.929" cy="10.286" r="1.286"></circle><circle id="img_dark_theme__q" cx="60.429" cy="7.714" r="1.286"></circle><circle id="img_dark_theme__s" cx="9.964" cy="18.964" r="2.25"></circle><circle id="img_dark_theme__u" cx="44.357" cy="14.786" r="1.929"></circle><ellipse id="img_dark_theme__b" cx="68" cy="44" rx="52" ry="44"></ellipse></defs><g transform="translate(4 20)" fill="none" fill-rule="evenodd"><use filter="url(#img_dark_theme__a)" xmlns:xlink="http://www.w3.org/1999/xlink" xlink:href="#img_dark_theme__b" fill="#000"></use><g transform="translate(32.643 8.643)"><path d="M24.514 0H46.2C66 0 70.714 4.714 70.714 24.514V46.2C70.714 66 66 70.714 46.2 70.714H24.514C4.714 70.714 0 66 0 46.2V24.514C0 4.714 4.714 0 24.514 0z" fill="#E7CB52"></path><use fill="#D7B439" xlink:href="#img_dark_theme__c"></use><use fill="#000" filter="url(#img_dark_theme__d)" xlink:href="#img_dark_theme__c"></use><use fill="#D7B439" xlink:href="#img_dark_theme__e"></use><use fill="#000" filter="url(#img_dark_theme__f)" xlink:href="#img_dark_theme__e"></use><use fill="#D7B439" xlink:href="#img_dark_theme__g"></use><use fill="#000" filter="url(#img_dark_theme__h)" xlink:href="#img_dark_theme__g"></use><use fill="#D7B439" xlink:href="#img_dark_theme__i"></use><use fill="#000" filter="url(#img_dark_theme__j)" xlink:href="#img_dark_theme__i"></use><use fill="#D7B439" xlink:href="#img_dark_theme__k"></use><use fill="#000" filter="url(#img_dark_theme__l)" xlink:href="#img_dark_theme__k"></use><use fill="#D7B439" xlink:href="#img_dark_theme__m"></use><use fill="#000" filter="url(#img_dark_theme__n)" xlink:href="#img_dark_theme__m"></use><use fill="#D7B439" xlink:href="#img_dark_theme__o"></use><use fill="#000" filter="url(#img_dark_theme__p)" xlink:href="#img_dark_theme__o"></use><use fill="#D7B439" xlink:href="#img_dark_theme__q"></use><use fill="#000" filter="url(#img_dark_theme__r)" xlink:href="#img_dark_theme__q"></use><use fill="#D7B439" xlink:href="#img_dark_theme__s"></use><use fill="#000" filter="url(#img_dark_theme__t)" xlink:href="#img_dark_theme__s"></use><use fill="#D7B439" xlink:href="#img_dark_theme__u"></use><use fill="#000" filter="url(#img_dark_theme__v)" xlink:href="#img_dark_theme__u"></use><path d="M70.714 24.514V46.2C70.714 66 66 70.714 46.2 70.714H24.514c-11.057 0-17.41-1.47-20.864-6.217 3.755 2.728 9.555 3.646 18.293 3.646h21.686c19.8 0 24.514-4.714 24.514-24.514V21.943c0-8.738-.918-14.538-3.646-18.291 4.747 3.452 6.217 9.805 6.217 20.862z" fill="#D7B439"></path><path d="M54.094 40.979c.685.67 1.464 1.431 2.083 2.163 2.215 2.492 3.884 4.594 4.349 6.043.425 1.453-.312 2.19-1.785 2.19h-5.156c-1.25 0-1.938-.633-3.17-1.992.586.478 1.134.706 1.884.706h5.156c1.474 0 2.21-.736 1.785-2.19-.465-1.449-2.134-3.55-4.349-6.043-.19-.224-.394-.45-.607-.677zm-12.969.714c.765 0 2.076.382 5.135 3.332.312.312.6.608.87.89-2.765-2.59-3.99-2.937-4.719-2.937-1.038 0-1.348.294-1.348 1.768v4.624c0 1.268-.406 2.005-3.683 2.005-4.539 0-9.45-2.29-13.426-6.572 3.72 3.454 8.08 5.286 12.14 5.286 3.277 0 3.683-.736 3.683-2.005V43.46c0-1.473.31-1.767 1.348-1.767zm17.267-18.29c1.225.126 1.47.881 1.172 1.876-.656 3.005-6.938 11.854-6.938 11.854-.546.874-.765 1.311 0 2.294.105.147.256.322.44.52-.748-.736-1.426-1.386-1.726-1.805-.764-.983-.546-1.42 0-2.294 0 0 6.283-8.85 6.938-11.854a2.9 2.9 0 00.103-.482zm-37.176.073c.764.213 1.147.808 1.53 1.913 1.734 5.053 4.288 9.668 6.282 12.057-2.046-1.548-5.43-7.113-7.568-13.343a8.465 8.465 0 00-.205-.538zm18.526-.088c.976.054 1.32.643 1.32 1.891v10.215l.002.112c-.162.053-.32.078-.485.078-.328 0-.802-.383-.802-1.475V23.994c0-.188-.008-.36-.024-.518z" fill="#D7B439"></path><path d="M58.278 23.994c.328-1.093 0-1.896-1.56-1.896h-5.155c-1.311 0-1.916.694-2.244 1.458 0 0-2.622 6.392-6.336 10.543-1.202 1.202-1.749 1.585-2.404 1.585-.328 0-.802-.383-.802-1.475V23.994c0-1.311-.38-1.896-1.473-1.896H30.2c-.82 0-1.312.609-1.312 1.185 0 1.243 1.857 1.53 2.049 5.026v7.593c0 1.665-.301 1.967-.957 1.967-1.748 0-6-6.42-8.521-13.766-.495-1.428-.99-2.005-2.308-2.005h-5.156c-1.474 0-1.768.694-1.768 1.458 0 1.366 1.748 8.14 8.14 17.099 4.26 6.118 10.263 9.434 15.726 9.434 3.277 0 3.683-.736 3.683-2.005V43.46c0-1.473.31-1.767 1.348-1.767.765 0 2.076.382 5.135 3.332 3.496 3.496 4.073 5.064 6.04 5.064h5.155c1.474 0 2.21-.736 1.785-2.19-.465-1.449-2.134-3.55-4.349-6.043-1.202-1.42-3.004-2.95-3.55-3.714-.765-.983-.547-1.42 0-2.294 0 0 6.282-8.85 6.937-11.854z" fill="#FFFCED"></path></g><path d="M103.358 39.242c19.011.531 31.89 3.594 32.412 8.564.816 7.768-28.864 17.254-66.292 21.188C32.05 72.928 1.047 69.82.23 62.051c-.545-5.189 12.52-11.145 32.412-15.7v3.885c-7.725 3.01-12.291 6.447-11.953 9.665.705 6.709 22.459 9.921 48.588 7.175 26.129-2.746 46.739-10.411 46.034-17.12-.314-2.982-4.786-5.273-11.953-6.657z" fill="#FFF9E0"></path></g></svg></svg>