<svg viewBox="0 0 96 92" xmlns="http://www.w3.org/2000/svg" xmlns:xlink="http://www.w3.org/1999/xlink"><svg height="28" width="28" viewBox="-4 -4 28 28" id="clock_20" y="64" xmlns="http://www.w3.org/2000/svg"><g fill="none" fill-rule="evenodd"><path d="M0 0h20v20H0z"></path><path d="M10 2.8a7.2 7.2 0 100 14.4 7.2 7.2 0 000-14.4zM10 1a9 9 0 110 18 9 9 0 010-18zm2.6 10.4L10.8 10V7A.9.9 0 109 7v3.6c0 .3.1.6.4.7l2.2 1.6a.9.9 0 001-1.4z" fill="#828a99" fill-rule="nonzero"></path></g></svg><svg width="64" height="64" viewBox="-4 -4 64 64" id="hide_outline_56" xmlns="http://www.w3.org/2000/svg"><g fill="none"><path d="M0 0h56v56H0z"></path><path d="M23.698 23.82a6 6 0 008.485 8.485l-8.485-8.486zm10.606 10.606a9 9 0 01-12.728-12.728l-4.474-4.474C12.052 20.386 8 25.732 8 28c0 1.454 2.232 5.063 5.389 7.957C17.505 39.73 22.556 42 28 42c3.828 0 7.46-1.118 10.75-3.129l-4.446-4.445zm6.621 6.62C37.03 43.572 32.652 45 28 45c-6.256 0-12.004-2.583-16.639-6.832C7.644 34.761 5 30.484 5 28c0-3.35 4.362-9.255 9.932-12.947l-2.493-2.492a1.5 1.5 0 012.122-2.122l31 31a1.5 1.5 0 01-2.122 2.122l-2.514-2.515zm-4.672-16.645a1.5 1.5 0 01-2.75 1.2 6.028 6.028 0 00-3.102-3.102 1.5 1.5 0 011.202-2.75 9.028 9.028 0 014.65 4.652zM46.67 36.11a1.5 1.5 0 01-2.24-1.995C46.6 31.676 48 29.078 48 28c0-1.454-2.232-5.063-5.389-7.957C38.495 16.27 33.444 14 28 14a19.5 19.5 0 00-4.248.468 1.5 1.5 0 11-.652-2.928c1.6-.356 3.236-.54 4.9-.54 6.256 0 12.004 2.583 16.639 6.832C48.356 21.239 51 25.516 51 28c0 1.99-1.714 5.171-4.331 8.11z" fill="#528BCC"></path></g></svg><svg height="28" width="28" viewBox="-4 -4 28 28" id="place_20" x="28" y="64" xmlns="http://www.w3.org/2000/svg"><mask id="place_20__a" fill="#fff"><path d="M.5 6.5c0 2.3 1.7 5.6 5 9.8a1.2 1.2 0 002 0c3.3-4.2 5-7.5 5-9.8 0-3.2-2.5-5.7-6-5.7s-6 2.5-6 5.7z" fill-rule="evenodd"></path></mask><g fill="none" fill-rule="evenodd" opacity=".8"><path d="M0 0h20v20H0z" opacity=".4"></path><g stroke="#828a99" stroke-width="1.8"><path d="M3.1 7.5c0-3.7 3-6.6 6.9-6.6 4 0 6.9 2.9 6.9 6.6 0 2.6-1.8 6-5.3 10.4a2.1 2.1 0 01-3.1.1c-3.6-4.5-5.4-7.9-5.4-10.5z"></path><path d="M3.6 6.8a2.9 2.9 0 115.8 0 2.9 2.9 0 01-5.8 0z" mask="url(#place_20__a)" transform="translate(3.5 1)"></path></g></g></svg><svg width="32" height="32" viewBox="-4 -4 32 32" id="user_add_24" x="64" xmlns="http://www.w3.org/2000/svg"><g fill="none" fill-rule="evenodd"><path d="M0 0h24v24H0z"></path><path d="M20 8c0-2.21-1.79-4-4-4s-4 1.79-4 4 1.79 4 4 4 4-1.79 4-4zM5 6.5a1 1 0 00-1 1V10H1.5a1 1 0 000 2H4v2.5a1 1 0 002 0V12h2.5a1 1 0 000-2H6V7.5a1 1 0 00-1-1zM8 18v1a1 1 0 001 1h14a1 1 0 001-1v-1c0-3.5-5.33-4.5-8-4.5s-8 1-8 4.5z" fill="#ffffff"></path></g></svg><svg width="32" height="32" viewBox="-4 -4 32 32" id="user_added_24" x="64" y="32" xmlns="http://www.w3.org/2000/svg"><g fill="none" fill-rule="evenodd"><path d="M0 0h24v24H0z"></path><path d="M8 18v1a1 1 0 001 1h14a1 1 0 001-1v-1c0-3.5-5.33-4.5-8-4.5s-8 1-8 4.5zM20 8c0 2.21-1.79 4-4 4s-4-1.79-4-4 1.79-4 4-4 4 1.79 4 4zM1.711 10.93l1.873 1.895L7.787 8.55a1 1 0 111.426 1.402l-4.914 5a1 1 0 01-1.425.002L.29 12.335A1 1 0 011.71 10.93z" fill="#3f8ae0"></path></g></svg></svg>