<svg viewBox="0 0 111 86" xmlns="http://www.w3.org/2000/svg" xmlns:xlink="http://www.w3.org/1999/xlink"><svg viewBox="-4 -4 22 22" width="22" height="22" id="bomb_16" x="53" y="57" xmlns="http://www.w3.org/2000/svg"><g fill="none" fill-rule="evenodd"><path d="M0 0h14v14H0z"></path><path d="M9.4 4.6c.2.2.2.5 0 .8l-.6.7c.5.8.8 1.7.8 2.7a4.4 4.4 0 11-1.8-3.6l.6-.6c.3-.3.7-.3 1 0zm-4.2 1a3 3 0 100 6.2 3 3 0 000-6.1zm6.2-1l1.2.2a.7.7 0 01-.1 1.3h-.1L11.3 6a.7.7 0 010-1.3zM12 2c.3.3.3.6.1.9l-.8.8a.7.7 0 01-1-.8l.8-.8c.3-.3.7-.3 1 0zm-2.8-.5l.1 1.1a.7.7 0 01-1.3.3v-.1l-.1-1a.7.7 0 011.3-.3z" fill="#99a2ad" fill-rule="nonzero"></path></g></svg><svg viewBox="-4 -4 29 29" width="29" height="29" id="bomb_24" y="57" xmlns="http://www.w3.org/2000/svg"><g fill="none" fill-rule="evenodd"><path d="M-2-1h24v24H-2z"></path><path d="M15.78 5.3c.23.23.25.6.06.85l-.06.07-1.02 1.02a8.25 8.25 0 11-.91-.93l1-1a.65.65 0 01.93 0zm-2.42 2.33a6.95 6.95 0 10-9.83 9.83 6.95 6.95 0 009.83-9.83zM14.93.65l.04.1.43 1.46a.65.65 0 01-1.21.46l-.04-.1-.43-1.46a.65.65 0 011.21-.46zm5.79 6.19a.65.65 0 01-.73.43l-.1-.02-1.56-.52a.65.65 0 01.32-1.26l.1.03 1.56.52c.34.1.52.48.4.82zm-1.16-5.45c.24.22.27.58.1.84l-.07.07-1.41 1.52A.65.65 0 0117.17 3l.06-.08 1.41-1.51a.65.65 0 01.92-.03z" fill="#b8c1cc" fill-rule="nonzero"></path></g></svg><svg viewBox="-4 -4 22 22" width="22" height="22" id="bomb_active_16" x="89" xmlns="http://www.w3.org/2000/svg"><g fill="none" fill-rule="evenodd"><path d="M0 0h14v14H0z"></path><path d="M9.4 4.6c.2.2.2.5 0 .8l-.6.7c.5.8.8 1.7.8 2.7a4.4 4.4 0 11-1.8-3.6l.6-.6c.3-.3.7-.3 1 0zm-4.2 1a3 3 0 100 6.2 3 3 0 000-6.1zm6.2-1l1.2.2a.7.7 0 01-.1 1.3h-.1L11.3 6a.7.7 0 010-1.3zM12 2c.3.3.3.6.1.9l-.8.8a.7.7 0 01-1-.8l.8-.8c.3-.3.7-.3 1 0zm-2.8-.5l.1 1.1a.7.7 0 01-1.3.3v-.1l-.1-1a.7.7 0 011.3-.3z" fill="#e64646" fill-rule="nonzero"></path></g></svg><svg viewBox="-4 -4 22 22" width="22" height="22" id="bomb_chat_16" x="89" y="22" xmlns="http://www.w3.org/2000/svg"><g fill="none" fill-rule="evenodd"><path d="M0 0h14v14H0z"></path><path d="M9.4 4.6c.2.2.2.5 0 .8l-.6.7c.5.8.8 1.7.8 2.7a4.4 4.4 0 11-1.8-3.6l.6-.6c.3-.3.7-.3 1 0zm-4.2 1a3 3 0 100 6.2 3 3 0 000-6.1zm6.2-1l1.2.2a.7.7 0 01-.1 1.3h-.1L11.3 6a.7.7 0 010-1.3zM12 2c.3.3.3.6.1.9l-.8.8a.7.7 0 01-1-.8l.8-.8c.3-.3.7-.3 1 0zm-2.8-.5l.1 1.1a.7.7 0 01-1.3.3v-.1l-.1-1a.7.7 0 011.3-.3z" fill="#ffffff" fill-rule="nonzero"></path></g></svg><svg viewBox="-4 -4 24 24" width="24" height="24" id="casper_16" x="29" y="57" xmlns="http://www.w3.org/2000/svg"><path d="M8 2c1.65 0 2.95.57 4.15 1.67A5.56 5.56 0 0114 7.77l-.01 5.04c-.07.9-.69 1.57-1.59 1.57-.9 0-1.14-.63-1.9-.5C9.71 14 9.42 15 8 15s-1.75-1-2.5-1.12c-.76-.13-1 .5-1.9.5-.87 0-1.55-.63-1.59-1.57L2 7.77c0-1.55.67-3.02 1.85-4.1A5.95 5.95 0 018 2zm2.32 8.22a.75.75 0 00-1.01-.05c-.74.62-1.48.62-2.23.24a2.22 2.22 0 01-.39-.24l-.07-.05a.75.75 0 00-.94.1.63.63 0 00.06.94c.14.11.36.27.66.42 1.24.62 2.62.62 3.86-.42a.63.63 0 00.06-.94zM5.5 6.5a1 1 0 100 2 1 1 0 000-2zm4.22.61a1.71 1.71 0 00-.33.22.55.55 0 00-.04.78.6.6 0 00.76.09l.05-.04a.67.67 0 01.1-.07c.2-.1.35-.1.52.02l.06.05a.6.6 0 00.81-.05.55.55 0 00-.04-.78 1.6 1.6 0 00-1.9-.22z" fill="#3f8ae0"></path></svg><svg viewBox="-4 -4 36 36" width="36" height="36" id="ghost_outline_28" x="53" xmlns="http://www.w3.org/2000/svg"><g fill="none" fill-rule="evenodd"><path d="M0 0h28v28H0z"></path><path d="M9.75 11a1.75 1.75 0 110 3.5 1.75 1.75 0 010-3.5zm6.08 6a1 1 0 111.34 1.5 4.43 4.43 0 01-5.4.63 4.95 4.95 0 01-.94-.64 1 1 0 011.24-1.56l.1.08c.08.07.28.21.55.36 1.05.57 2.08.57 3.11-.36zM14 2c2.94 0 5.36 1 7.6 3.09a10.47 10.47 0 013.4 7.67l-.02 8.6c-.15 2.07-1.63 3.58-3.64 3.58-.77 0-1.3-.17-2.02-.55l-.26-.14-.13-.06a.9.9 0 00-.61-.1c-.15.02-.3.1-.56.3l-.53.43-.2.15A4.65 4.65 0 0114 26a4.8 4.8 0 01-3.24-1.18l-.6-.48a1.17 1.17 0 00-.48-.25c-.25-.05-.4 0-.74.16l-.5.26c-.6.3-1.1.43-1.78.43-2 0-3.54-1.51-3.64-3.65L3 12.76c0-2.89 1.23-5.65 3.4-7.67A10.83 10.83 0 0114 2zm0 2c-2.38 0-4.4.85-6.23 2.55A8.47 8.47 0 005 12.75l.01 8.5c.05 1.03.72 1.7 1.65 1.7.38 0 .63-.09 1.08-.33l.29-.15a2.93 2.93 0 011.98-.36 3 3 0 011.35.64c.15.1.62.5.64.5l.18.14c.58.43 1.07.61 1.82.61a2.8 2.8 0 001.98-.74l.56-.45.18-.14a2.93 2.93 0 013.25-.2l.45.23c.35.18.58.24.92.24.92 0 1.57-.67 1.64-1.65l.02-8.53c0-2.33-1-4.56-2.77-6.2A8.66 8.66 0 0014 4zm2.9 7.88a2.71 2.71 0 013.27.38 1 1 0 01.07 1.41 1 1 0 01-1.4.07l-.1-.08c-.3-.22-.57-.2-.9-.03-.1.05-.16.1-.17.11l-.1.08a1 1 0 01-1.31-.15 1 1 0 01.07-1.4c.13-.12.31-.26.57-.4z" fill="#99a2ad" fill-rule="nonzero"></path></g></svg><svg viewBox="-4 -4 53 57" width="53" height="57" id="ghost_outline_56" xmlns="http://www.w3.org/2000/svg"><g fill="none" fill-rule="evenodd"><path d="M-5.5-4h56v56h-56z"></path><path d="M28 30.5c.7.7.6 1.7 0 2.3a7.6 7.6 0 01-9.4 1c-.7-.3-1.2-.7-1.6-1-.6-.6-.7-1.6 0-2.3.5-.6 1.5-.7 2.1-.2l.1.1 1 .7c1.9 1 3.7 1 5.6-.7.6-.6 1.7-.5 2.3.1zM14 18a3.5 3.5 0 110 7 3.5 3.5 0 010-7zm8.5-18c5.8 0 10.8 2 15.3 6.3 4.2 3.9 6.6 9.2 6.7 14.8v20.8c0 2.5-2 4.5-4.5 4.5-.6 0-1.3 0-2.3-.5l-1.9-.8a7.9 7.9 0 00-3-.8h-.2c-.4 0-.8.3-2 1L29 46.6a11.8 11.8 0 01-6.4 2.4c-2 0-3.8-.7-6-2.2l-2-1.4-.5-.3a4 4 0 00-1.5-.8h-.2a8 8 0 00-3.1.8l-2 .8c-.7.4-1.2.5-1.6.5H5c-2.5 0-4.3-2-4.5-4.4V21.5c0-5.7 2.4-11.2 6.8-15.2C11.7 2.2 16.9 0 22.5 0zm0 3h-.4c-4.8.2-9.1 2-12.8 5.5A17.8 17.8 0 003.5 21v20.9c.2 1 .7 1.5 1.4 1.5h.5l.4-.1.3-.1 2-.8a11 11 0 014-1h.9c1 .1 1.7.5 3 1.4l.3.2 1.9 1.3a7.6 7.6 0 004 1.7h.5c1.2-.1 2.6-.6 4.1-1.6l.3-.3L29 43c1.7-1.2 2.5-1.6 3.8-1.6 1.3 0 2.4.3 4 1h.3l1.9.8c.5.3.8.3 1 .3 1 0 1.5-.5 1.6-1.4v-21c-.1-4.7-2.2-9.3-5.8-12.6C31.8 4.8 27.7 3 23 3h-.4zM34 20.9c.6.5.7 1.4.2 2-.5.7-1.3.8-1.9.4l-.1-.1-.2-.2c-.9-.7-1.8-.6-2.7-.2l-.3.2-.1.1-.2.2c-.6.4-1.4.3-1.9-.3-.5-.7-.4-1.6.2-2.1l1-.7c2-1 4-1 6 .7z" fill="#99a2ad" fill-rule="nonzero"></path></g></svg></svg>