<svg viewBox="0 0 64 32" xmlns="http://www.w3.org/2000/svg" xmlns:xlink="http://www.w3.org/1999/xlink"><svg fill="none" viewBox="-4 -4 32 32" width="32" height="32" id="deleted_24" xmlns="http://www.w3.org/2000/svg"><path fill="#AAAEB3" fill-rule="evenodd" d="M8.5 5H4.22A.22.22 0 014 4.78C4 3.8 4.8 3 5.78 3H8.7A2.5 2.5 0 0111 1.5h2c1.03 0 1.9.62 2.3 1.5h2.92C19.2 3 20 3.8 20 4.78c0 .12-.1.22-.22.22H8.5zM5 6h14l-1.13 13.7a2.5 2.5 0 01-2.49 2.3H8.62c-1.3 0-2.38-1-2.5-2.3L5 6zm7 2a.5.5 0 00-.5.5V19a.5.5 0 001 0V8.5A.5.5 0 0012 8zm2.48.48a.5.5 0 111 .04l-.46 10.5a.5.5 0 11-1-.04l.46-10.5zM9.02 8a.5.5 0 00-.5.52l.46 10.5a.5.5 0 001-.04l-.46-10.5a.5.5 0 00-.5-.48z" clip-rule="evenodd"></path></svg><svg fill="none" viewBox="-4 -4 32 32" width="32" height="32" id="no_access_24" x="32" xmlns="http://www.w3.org/2000/svg"><path fill="#AAAEB3" fill-rule="evenodd" d="M15.73 3H8.27L3 8.27v7.46L8.27 21h7.46L21 15.73V8.27L15.73 3zm-4.98 12.75a1 1 0 011-1h.5a1 1 0 011 1v.5a1 1 0 01-1 1h-.5a1 1 0 01-1-1v-.5zM12 13a1 1 0 001-1V8a1 1 0 10-2 0v4a1 1 0 001 1z" clip-rule="evenodd"></path></svg></svg>