<svg viewBox="0 0 108 100" xmlns="http://www.w3.org/2000/svg" xmlns:xlink="http://www.w3.org/1999/xlink"><svg width="36" height="36" viewBox="-4 -4 36 36" id="check_shield_outline_28" y="28" xmlns="http://www.w3.org/2000/svg"><path d="M13.484 1.502c.35-.05.682-.05 1.032 0 .345.05.633.127 1.296.348l6.82 2.273A2 2 0 0124 6.021V15.3c0 4.794-2.878 8.467-8.458 10.942l-.368.16a3 3 0 01-2.348 0C7.007 23.93 4 20.202 4 15.3V6.02a2 2 0 011.368-1.897l7.008-2.335c.533-.174.797-.242 1.108-.286zm.75 1.98a1.58 1.58 0 00-.467 0c-.2.029-.389.08-.947.265L6 6.021V15.3c0 4.016 2.471 7.078 7.609 9.262.25.106.532.106.775.003l.354-.154C19.641 22.236 22 19.226 22 15.3V6.02l-6.977-2.324a5.973 5.973 0 00-.668-.193zm5.173 7.01a1 1 0 01.083 1.32l-.083.095-6 6a1 1 0 01-1.32.083l-.094-.083-3.25-3.25a1 1 0 011.32-1.497l.094.083 2.543 2.542 5.293-5.292a1 1 0 011.414 0z" fill="#71aaeb"></path></svg><svg width="36" height="36" viewBox="-4 -4 36 36" id="help_outline_28" x="36" y="28" xmlns="http://www.w3.org/2000/svg"><path d="M3 14C3 7.928 7.928 3 14 3s11 4.928 11 11-4.928 11-11 11S3 20.072 3 14zm1.8 0c0 5.078 4.122 9.2 9.2 9.2 5.078 0 9.2-4.122 9.2-9.2 0-5.078-4.122-9.2-9.2-9.2-5.078 0-9.2 4.122-9.2 9.2zm8.1 5.65v-.3a.95.95 0 01.95-.95h.3a.95.95 0 01.95.95v.3a.95.95 0 01-.95.95h-.3a.95.95 0 01-.95-.95zm2.97-5.447c-.477.488-.821.912-.966 1.652a2.2 2.2 0 00-.029.298.889.889 0 01-.887.847h-.01a.891.891 0 01-.89-.894c0-.25.008-.413.023-.49.138-.718.487-1.361.977-1.863l1.105-1.134c.316-.318.525-.774.525-1.269 0-.99-.801-1.8-1.781-1.8a1.78 1.78 0 00-1.493.82 3.745 3.745 0 00-.238.465.891.891 0 01-1.1.48l-.034-.012a.85.85 0 01-.513-1.128c.064-.155.125-.291.183-.41.612-1.245 1.764-2.015 3.195-2.015 1.968 0 3.563 1.611 3.563 3.6 0 .792-.32 1.512-.828 2.025l-.802.828z" fill="#71aaeb"></path></svg><svg width="36" height="36" viewBox="-4 -4 36 36" id="magic_wand_outline_28" x="72" y="28" xmlns="http://www.w3.org/2000/svg"><path d="M15.358 12.637a1 1 0 010 1.414L4.75 24.658a1 1 0 11-1.414-1.414l10.607-10.607a1 1 0 011.414 0zm8.587 1.543a.3.3 0 010 .28l-1.237 2.34 1.237 2.34a.3.3 0 01-.405.405l-2.34-1.237-2.34 1.237a.3.3 0 01-.405-.405l1.237-2.34-1.237-2.34a.3.3 0 01.405-.405l2.34 1.237 2.34-1.237a.3.3 0 01.405.125zm-10-10a.3.3 0 010 .28L12.708 6.8l1.237 2.34a.3.3 0 01-.405.406L11.2 8.309 8.86 9.546a.3.3 0 01-.405-.406L9.692 6.8 8.455 4.46a.3.3 0 01.405-.405l2.34 1.237 2.34-1.237a.3.3 0 01.405.125zm10 0a.3.3 0 010 .28L22.708 6.8l1.237 2.34a.3.3 0 01-.405.405L21.2 8.308l-2.34 1.237a.3.3 0 01-.405-.405l1.237-2.34-1.237-2.34a.3.3 0 01.405-.405l2.34 1.237 2.34-1.237a.3.3 0 01.405.125z" fill="#71aaeb"></path></svg><svg width="36" height="36" viewBox="-4 -4 36 36" id="user_circle_outline_28" y="64" xmlns="http://www.w3.org/2000/svg"><path d="M14 2c6.627 0 12 5.373 12 12s-5.373 12-12 12S2 20.627 2 14 7.373 2 14 2zm0 18.5c-2.086 0-4.08.582-5.797 1.649A9.952 9.952 0 0014 24c2.16 0 4.161-.685 5.796-1.85A10.94 10.94 0 0014 20.5zM14 4C8.477 4 4 8.477 4 14a9.964 9.964 0 002.648 6.779A12.934 12.934 0 0114 18.5c2.67 0 5.215.808 7.353 2.277A9.962 9.962 0 0024 14c0-5.523-4.477-10-10-10zm0 3.5a4.749 4.749 0 014.75 4.75A4.749 4.749 0 0114 17a4.749 4.749 0 01-4.75-4.75A4.749 4.749 0 0114 7.5zm0 2c-1.52 0-2.75 1.23-2.75 2.75S12.48 15 14 15s2.75-1.23 2.75-2.75S15.52 9.5 14 9.5z" fill="#71aaeb"></path></svg><svg width="108" height="28" viewBox="-4 -4 108 28" id="vkconnect_logo" xmlns="http://www.w3.org/2000/svg"><path fill="#e1e3e6" d="M13.078 0c5.605 0 6.94 1.333 6.94 6.933v6.134c0 5.6-1.335 6.933-6.94 6.933H6.94C1.335 20 0 18.667 0 13.067V6.933C0 1.333 1.335 0 6.94 0h6.138zm18.953 4.969c2.428 0 4.308 1.88 4.759 3.858h-2.546s-.548-1.43-2.213-1.43c-1.449 0-2.546 1.097-2.546 2.761 0 1.665 1.097 2.762 2.546 2.762 1.665 0 2.213-1.43 2.213-1.43h2.546c-.45 1.998-2.33 3.877-4.759 3.877-2.761 0-5.092-2.33-5.092-5.209 0-2.878 2.33-5.19 5.092-5.19zm10.856 0c2.762 0 5.092 2.31 5.092 5.19 0 2.878-2.33 5.208-5.092 5.208-2.76 0-5.091-2.33-5.091-5.209 0-2.878 2.33-5.19 5.091-5.19zm34.116 0c2.644 0 4.857 2.095 4.857 5.19 0 .45-.098.998-.098.998h-7.09c.216.999 1 1.763 2.331 1.763 1.332 0 1.88-.764 1.88-.764h2.644c-.548 1.547-2.213 3.211-4.524 3.211-2.761 0-5.091-2.33-5.091-5.209 0-2.878 2.33-5.19 5.091-5.19zm11.072 0c2.428 0 4.308 1.88 4.759 3.858h-2.546s-.549-1.43-2.213-1.43c-1.45 0-2.546 1.097-2.546 2.761 0 1.665 1.097 2.762 2.546 2.762 1.664 0 2.213-1.43 2.213-1.43h2.546c-.45 1.998-2.33 3.877-4.76 3.877-2.76 0-5.09-2.33-5.09-5.209 0-2.878 2.33-5.19 5.09-5.19zm9.642-2.33v2.428h2.213v2.33h-2.213v4.21c0 .882.548 1.43 1.43 1.43.45 0 .665-.117.665-.117v2.213s-.548.235-1.214.235c-1.997 0-3.427-1.45-3.427-3.663V7.397h-1.547V5.302h.646c.784 0 1.234-.45 1.234-1.234v-1.43h2.213zM54.86 4.968c2.428 0 4.093 1.645 4.093 4.308v5.973h-2.546V9.61c0-1.332-.881-2.213-2.115-2.213-1.214 0-2.095.881-2.095 2.213v5.64H49.65V5.067h1.88l.45.998s1.215-1.095 2.88-1.095zm11.404 0c2.429 0 4.093 1.645 4.093 4.308v5.973h-2.545V9.61c0-1.332-.882-2.213-2.115-2.213-1.215 0-2.096.881-2.096 2.213v5.64h-2.546V5.067h1.88l.45.998S64.6 4.97 66.266 4.97zM5.422 6.25h-1.46c-.417 0-.5.196-.5.412 0 .387.494 2.303 2.304 4.836 1.206 1.73 2.905 2.669 4.452 2.669.927 0 1.042-.209 1.042-.568v-1.307c0-.417.088-.5.382-.5.216 0 .587.108 1.453.942.99.99 1.153 1.433 1.71 1.433h1.46c.417 0 .625-.209.505-.62-.132-.41-.604-1.004-1.231-1.709-.34-.402-.85-.834-1.005-1.05-.217-.278-.155-.402 0-.65 0 0 1.778-2.502 1.964-3.352.092-.309 0-.536-.442-.536h-1.46c-.37 0-.542.196-.635.412 0 0-.742 1.808-1.793 2.982-.34.34-.495.448-.68.448-.094 0-.228-.108-.228-.417V6.786c0-.37-.108-.536-.417-.536H8.55c-.232 0-.371.172-.371.335 0 .352.526.433.58 1.422v2.147c0 .471-.085.556-.27.556-.496 0-1.7-1.815-2.413-3.893-.14-.404-.28-.567-.653-.567zm37.465 1.147c-1.449 0-2.545 1.097-2.545 2.761 0 1.665 1.096 2.762 2.545 2.762 1.43 0 2.546-1.097 2.546-2.762 0-1.664-1.116-2.76-2.546-2.76zm34.116 0c-1.331 0-2.213.881-2.448 1.998h4.877c-.216-1.117-1.097-1.998-2.429-1.998z"></path></svg></svg>