<svg viewBox="0 0 96 72" xmlns="http://www.w3.org/2000/svg" xmlns:xlink="http://www.w3.org/1999/xlink"><svg height="18" width="18" viewBox="-4 -4 18 18" id="ad_tag_10" x="72" y="48" xmlns="http://www.w3.org/2000/svg"><g fill="none"><path d="M0 0h10v10H0z"></path><path d="M9.25 0a.75.75 0 01.743.648L10 .75v6a.75.75 0 01-1.493.102L8.5 6.75V2.56L2.28 8.78a.75.75 0 01-1.133-.976l.073-.084L7.438 1.5H3.25a.75.75 0 01-.743-.648L2.5.75a.75.75 0 01.648-.743L3.25 0z" fill="#e1e3e6"></path></g></svg><svg height="24" width="24" viewBox="-4 -4 24 24" id="cancel_16" x="72" xmlns="http://www.w3.org/2000/svg"><g fill="none" fill-rule="evenodd"><path d="M0 0h16v16H0z"></path><path d="M12.736 3.264a.9.9 0 010 1.272L9.273 8l3.463 3.464a.9.9 0 01.08 1.18l-.08.092a.9.9 0 01-1.272 0L8 9.273l-3.464 3.463a.9.9 0 11-1.272-1.272L6.727 8 3.264 4.536a.9.9 0 01-.08-1.18l.08-.092a.9.9 0 011.272 0L8 6.727l3.464-3.463a.9.9 0 011.272 0z" fill="#909499" fill-rule="nonzero"></path></g></svg><svg width="36" height="36" viewBox="-4 -4 36 36" id="keyboard_bots_outline_28" xmlns="http://www.w3.org/2000/svg"><g fill="none" fill-rule="evenodd"><path d="M0 0h28v28H0z"></path><path d="M16.308 3c2.59 0 3.818.237 5.094.92a6.452 6.452 0 012.678 2.678c.683 1.276.92 2.504.92 5.094v4.616c0 2.59-.237 3.818-.92 5.094a6.452 6.452 0 01-2.678 2.678c-1.276.683-2.504.92-5.094.92h-4.616c-2.59 0-3.818-.237-5.094-.92a6.452 6.452 0 01-2.678-2.678C3.237 20.126 3 18.898 3 16.308v-4.616c0-2.59.237-3.818.92-5.094A6.452 6.452 0 016.598 3.92C7.874 3.237 9.102 3 11.692 3h4.616zm0 2h-4.616c-2.288 0-3.204.177-4.15.683a4.452 4.452 0 00-1.859 1.858C5.177 8.488 5 9.404 5 11.691v4.617c0 2.288.177 3.204.683 4.15a4.452 4.452 0 001.858 1.859c.947.506 1.863.683 4.15.683h4.617c2.288 0 3.204-.177 4.15-.683a4.452 4.452 0 001.859-1.858c.506-.947.683-1.863.683-4.15v-4.617c0-2.288-.177-3.204-.683-4.15a4.452 4.452 0 00-1.858-1.859C19.512 5.177 18.596 5 16.309 5zM11 15a2 2 0 110 4 2 2 0 010-4zm6 0a2 2 0 110 4 2 2 0 010-4zm-6-6a2 2 0 110 4 2 2 0 010-4zm6 0a2 2 0 110 4 2 2 0 010-4z" fill="#71aaeb" fill-rule="nonzero"></path></g></svg><svg height="28" width="28" viewBox="-4 -4 28 28" id="pin_outline_20" x="36" y="36" xmlns="http://www.w3.org/2000/svg"><g fill="none" fill-rule="evenodd"><path d="M0 0h20v20H0z"></path><path d="M7.485 13.65l-3.712 3.712a.75.75 0 01-1.06-1.06l3.712-3.713L3.45 9.615a1 1 0 01.63-1.704l3.686-.284a.25.25 0 00.158-.072l2.352-2.353a.25.25 0 00.069-.128l.294-1.47a.75.75 0 011.266-.384l4.95 4.95a.75.75 0 01-.384 1.266l-1.47.294a.25.25 0 00-.128.068l-2.353 2.353a.25.25 0 00-.073.158l-.283 3.685a1 1 0 01-1.704.63zm3.467-1.456a1.75 1.75 0 01.507-1.104l2.353-2.352a1.75 1.75 0 01.894-.479l.097-.02-2.968-2.967-.02.097a1.75 1.75 0 01-.478.894L8.984 8.616a1.75 1.75 0 01-1.103.507l-2.601.2 5.472 5.472z" fill="#909499" fill-rule="nonzero"></path></g></svg><svg width="24" height="24" viewBox="-4 -4 24 24" id="recent_16" x="72" y="24" xmlns="http://www.w3.org/2000/svg"><g fill="none" fill-rule="evenodd"><path d="M0 0h16v16H0z"></path><path d="M8 14.5a6.5 6.5 0 110-13 6.5 6.5 0 010 13zM8 13A5 5 0 108 3a5 5 0 000 10zm2.7-4.36a.75.75 0 01-.48 1.42L7.33 9.1a.75.75 0 01-.51-.71V5.43a.75.75 0 011.5 0v2.4l2.38.81z" fill="#5d5f61" fill-rule="nonzero"></path></g></svg><svg height="36" width="36" viewBox="-4 -4 36 36" id="template_outline_28" x="36" xmlns="http://www.w3.org/2000/svg"><g fill="none" fill-rule="evenodd"><path d="M0 0h28v28H0z"></path><path d="M5 14h18M5 6h18M5 22h10" stroke="#71aaeb" stroke-linecap="round" stroke-linejoin="round" stroke-width="2"></path></g></svg><svg height="36" width="36" viewBox="-4 -4 36 36" id="vkmeapp_logo_28" y="36" xmlns="http://www.w3.org/2000/svg"><defs><linearGradient id="vkmeapp_logo_28__d" x1="100%" x2="0%" y1="87.665%" y2="12.335%"><stop offset="0" stop-color="#6cacf5"></stop><stop offset="1" stop-color="#0069e0"></stop></linearGradient><filter id="vkmeapp_logo_28__c" height="102.4%" width="102.4%" x="-1.2%" y="-1.2%"><feOffset dy="-1" in="SourceAlpha" result="shadowOffsetInner1"></feOffset><feComposite in="shadowOffsetInner1" in2="SourceAlpha" k2="-1" k3="1" operator="arithmetic" result="shadowInnerInner1"></feComposite><feColorMatrix in="shadowInnerInner1" result="shadowMatrixInner1" values="0 0 0 0 0 0 0 0 0 0 0 0 0 0 0 0 0 0 0.15 0"></feColorMatrix><feOffset dy="1" in="SourceAlpha" result="shadowOffsetInner2"></feOffset><feComposite in="shadowOffsetInner2" in2="SourceAlpha" k2="-1" k3="1" operator="arithmetic" result="shadowInnerInner2"></feComposite><feColorMatrix in="shadowInnerInner2" result="shadowMatrixInner2" values="0 0 0 0 1 0 0 0 0 1 0 0 0 0 1 0 0 0 0.15 0"></feColorMatrix><feMerge><feMergeNode in="shadowMatrixInner1"></feMergeNode><feMergeNode in="shadowMatrixInner2"></feMergeNode></feMerge></filter><path id="vkmeapp_logo_28__b" d="M0 0h42v42H0z"></path><mask id="vkmeapp_logo_28__a" fill="#fff"><path d="M9.707 0h8.586C26.133 0 28 1.867 28 9.707v8.586C28 26.133 26.133 28 18.293 28H9.707C1.867 28 0 26.133 0 18.293V9.707C0 1.867 1.867 0 9.707 0z" fill-rule="evenodd"></path></mask></defs><g fill="none" fill-rule="evenodd" mask="url(#vkmeapp_logo_28__a)"><g transform="translate(-7 -7)"><use fill="#fff" xmlns:xlink="http://www.w3.org/1999/xlink" xlink:href="#vkmeapp_logo_28__b"></use><use fill="#000" filter="url(#vkmeapp_logo_28__c)" xlink:href="#vkmeapp_logo_28__b"></use><path d="M0 0h42v42H0z"></path><path d="M7 7h28v28H7z"></path><path d="M14.174 3.267c5.902.011 10.56 4.843 10.56 10.733 0 5.902-4.658 10.733-10.56 10.733C6.901 24.733 3.614 16.707 0 14 3.613 11.305 6.901 3.267 14.174 3.267zm-.174 9.1a1.633 1.633 0 100 3.266 1.633 1.633 0 000-3.266zm-4.667 0a1.633 1.633 0 100 3.266 1.633 1.633 0 000-3.266zm9.334 0a1.633 1.633 0 100 3.266 1.633 1.633 0 000-3.266z" fill="url(#vkmeapp_logo_28__d)" fill-rule="nonzero" transform="translate(7 7)"></path></g></g></svg></svg>