<svg viewBox="0 0 148 128" xmlns="http://www.w3.org/2000/svg" xmlns:xlink="http://www.w3.org/1999/xlink"><svg width="28" height="28" viewBox="-4 -4 28 28" id="articles_20" x="120" xmlns="http://www.w3.org/2000/svg"><g fill="none" fill-rule="evenodd"><path d="M0 0h20v20H0z"></path><g fill="#99a2ad"><path d="M18.5 6.25a.75.75 0 00-.75-.75h-5.5a.75.75 0 000 1.5h5.5c.41 0 .75-.33.75-.75zm0 5a.75.75 0 00-.75-.75h-8.5a.75.75 0 100 1.5h8.5c.41 0 .75-.33.75-.75zm-14 5c0 .41.33.75.75.75h12.5a.75.75 0 100-1.5H5.25a.75.75 0 00-.75.75zM5.5 3c.41 0 .75.34.75.75v6.5a.75.75 0 11-1.5 0v-6.5c0-.41.34-.75.75-.75z"></path><path d="M1.5 3.75c0 .41.34.75.75.75h6.5a.75.75 0 100-1.5h-6.5a.75.75 0 00-.75.75z"></path></g></g></svg><svg width="28" height="28" viewBox="-4 -4 28 28" id="comments_20" x="120" y="28" xmlns="http://www.w3.org/2000/svg"><g fill="none" fill-rule="evenodd"><path d="M0 0h20v20H0z" opacity=".4"></path><path fill="#99a2ad" fill-rule="nonzero" d="M6.98 18c-.4-.29-.61-.8-.61-1.27V15H5.06a2.7 2.7 0 01-2.81-2.82V5.57a2.7 2.7 0 012.8-2.82h9.9a2.7 2.7 0 012.8 2.82v6.61a2.7 2.7 0 01-2.8 2.82h-3.02l-3.06 2.7c-.61.6-1.32.73-1.9.3zm4.05-4.2c.22-.2.5-.3.77-.3h3.14c.82 0 1.31-.49 1.31-1.32V5.57c0-.83-.49-1.32-1.3-1.32h-9.9c-.81 0-1.3.5-1.3 1.32v6.61c0 .83.49 1.32 1.3 1.32h2.07c.58.17.58.17.75.75v2.32z"></path></g></svg><svg width="28" height="28" viewBox="-4 -4 28 28" id="donaters_20" x="120" y="56" xmlns="http://www.w3.org/2000/svg"><g fill="none" fill-rule="evenodd"><path d="M0 0h20v20H0z" opacity=".4"></path><path fill="#99a2ad" d="M4.5 17a1.5 1.5 0 110-3 1.5 1.5 0 010 3zm7-.75a.75.75 0 11-1.5 0A6.15 6.15 0 003.75 10a.75.75 0 010-1.5 7.64 7.64 0 017.75 7.75zm5 0a.75.75 0 11-1.5 0A11.1 11.1 0 003.75 5a.75.75 0 010-1.5A12.6 12.6 0 0116.5 16.25z"></path></g></svg><svg width="20" height="20" viewBox="-4 -4 20 20" id="donut_12" x="80" y="100" xmlns="http://www.w3.org/2000/svg"><g fill="none" fill-rule="evenodd"><circle cx="6" cy="6" r="6" fill="#FFA000"></circle><path fill="#FFF" d="M6 8.25l-1.9 1a.25.25 0 01-.37-.26l.37-2.12-1.54-1.5a.25.25 0 01.14-.43l2.12-.3.96-1.94a.25.25 0 01.44 0l.96 1.93 2.12.31a.25.25 0 01.14.43L7.9 6.87l.37 2.12a.25.25 0 01-.37.26l-1.9-1z"></path></g></svg><svg width="20" height="20" viewBox="-4 -4 20 20" id="donut_12_gray" x="100" y="100" xmlns="http://www.w3.org/2000/svg"><g fill="none" fill-rule="evenodd"><circle cx="6" cy="6" r="6" fill="#C4C8CC"></circle><path fill="#FFF" d="M6 8.25l-1.9 1a.25.25 0 01-.37-.26l.37-2.12-1.54-1.5a.25.25 0 01.14-.43l2.12-.3.96-1.94a.25.25 0 01.44 0l.96 1.93 2.12.31a.25.25 0 01.14.43L7.9 6.87l.37 2.12a.25.25 0 01-.37.26l-1.9-1z"></path></g></svg><svg width="56" height="56" viewBox="-4 -4 56 56" id="donut_outline_48" x="64" xmlns="http://www.w3.org/2000/svg"><g fill="none" fill-rule="evenodd" stroke="#a3adb8" stroke-width="2"><rect width="46" height="46" x="1" y="1" rx="23"></rect><path d="M23.12 31.93l-4.7 2.87a1.68 1.68 0 01-2.51-1.82l1.28-5.37a1.68 1.68 0 00-.54-1.66l-4.63-3.96a1.44 1.44 0 01.82-2.53l6.07-.49a1.68 1.68 0 001.42-1.03l2.12-5.1a1.68 1.68 0 013.1 0l2.12 5.1c.24.58.79.98 1.42 1.03l5.5.44a1.68 1.68 0 01.95 2.95l-4.19 3.59a1.68 1.68 0 00-.54 1.66l1.28 5.37a1.68 1.68 0 01-2.5 1.82l-4.71-2.87a1.68 1.68 0 00-1.76 0z"></path></g></svg><svg height="36" width="36" viewBox="-4 -4 36 36" id="info_outline_28" y="64" xmlns="http://www.w3.org/2000/svg"><g fill="none" fill-rule="evenodd"><path d="M0 0h28v28H0z"></path><path d="M14 2c6.627 0 12 5.373 12 12s-5.373 12-12 12S2 20.627 2 14 7.373 2 14 2zm0 2C8.477 4 4 8.477 4 14s4.477 10 10 10 10-4.477 10-10S19.523 4 14 4zm.074 8c.237 0 .386.037.517.107.13.07.232.172.302.302s.107.28.107.517v6.148c0 .237-.037.386-.107.517a.727.727 0 01-.302.302c-.13.07-.28.107-.517.107h-.148c-.237 0-.386-.037-.517-.107a.727.727 0 01-.302-.302c-.07-.13-.107-.28-.107-.517v-6.148c0-.237.037-.386.107-.517a.727.727 0 01.302-.302c.13-.07.28-.107.517-.107zM14 7.6a1.4 1.4 0 110 2.8 1.4 1.4 0 010-2.8z" fill="#71aaeb" fill-rule="nonzero"></path></g></svg><svg width="24" height="24" viewBox="-4 -4 24 24" id="lock_16_green" x="56" y="100" xmlns="http://www.w3.org/2000/svg"><g fill="none" fill-rule="evenodd"><path d="M0 0h16v16H0z"></path><path d="M4 7V5.002A4.004 4.004 0 018 1c2.21 0 4 1.782 4 4.001V7h.998C13.55 7 14 7.453 14 7.997v6.006c0 .55-.456.997-1.002.997H3.002A1.004 1.004 0 012 14.003V7.997C2 7.447 2.456 7 3.002 7H4zm2-2v2h4V5c0-1.112-.895-2-2-2-1.112 0-2 .895-2 2z" fill="#4bb34b"></path></g></svg><svg width="36" height="36" viewBox="-4 -4 36 36" id="money_circle_outline_28" x="36" y="64" xmlns="http://www.w3.org/2000/svg"><g fill="none" fill-rule="evenodd"><path d="M0 0h28v28H0z"></path><path fill="#71aaeb" fill-rule="nonzero" d="M14 2a12 12 0 110 24 12 12 0 010-24zm0 2a10 10 0 100 20 10 10 0 000-20zm1.67 4.5a3.66 3.66 0 110 7.32h-2.46v1.4h1.64a.82.82 0 010 1.64h-1.63v.78c0 .48-.39.86-.86.86h-.14a.86.86 0 01-.86-.86v-.78h-.87a.82.82 0 010-1.63h.87v-1.4h-.83a.86.86 0 01-.86-.86v-.16c0-.47.38-.86.86-.86h.83v-4.6c0-.47.38-.85.86-.85h3.45zm.04 1.71h-2.5v3.74h2.5a1.87 1.87 0 000-3.74z"></path></g></svg><svg width="28" height="28" viewBox="-4 -4 28 28" id="podcasts_20" y="100" xmlns="http://www.w3.org/2000/svg"><g fill="none" fill-rule="evenodd"><path d="M0 0h20v20H0z" opacity=".4"></path><g fill-rule="nonzero"><path stroke="#99a2ad" stroke-width="1.5" d="M10 5.75A3.25 3.25 0 006.75 9v3a3.25 3.25 0 006.5 0V9A3.25 3.25 0 0010 5.75z"></path><g fill="#99a2ad"><path d="M4.5 9.143H3.001a7 7 0 1113.997 0H15.5V9a5.5 5.5 0 00-11 0z"></path><path d="M3.5 8A1.5 1.5 0 015 9.5v3a1.5 1.5 0 01-3 0v-3A1.5 1.5 0 013.5 8zm13 0A1.5 1.5 0 0118 9.5v3a1.5 1.5 0 01-3 0v-3A1.5 1.5 0 0116.5 8zm-6.05 4h2.247a.45.45 0 01.336.75l-.338.38c-.135.152-.188.2-.255.246-.067.045-.136.076-.215.096s-.15.028-.353.028H10.45a.75.75 0 110-1.5zm0-3h2.5a.75.75 0 110 1.5h-2.5a.75.75 0 010-1.5zM10 15a.75.75 0 01.75.75v1.5a.75.75 0 11-1.5 0v-1.5A.75.75 0 0110 15z"></path></g></g></g></svg><svg width="28" height="28" viewBox="-4 -4 28 28" id="posts_20" x="28" y="100" xmlns="http://www.w3.org/2000/svg"><g fill="none"><path d="M0 0h20v20H0z" opacity=".53"></path><path stroke="#99a2ad" stroke-width="1.5" d="M6.92 2.75h6.16c1.45 0 1.98.15 2.5.43a3 3 0 011.24 1.23c.28.53.43 1.06.43 2.5v6.17c0 1.45-.15 1.98-.43 2.5a3 3 0 01-1.23 1.24c-.53.28-1.06.43-2.5.43H6.91c-1.45 0-1.98-.15-2.5-.43a3 3 0 01-1.24-1.23c-.28-.53-.43-1.06-.43-2.5V6.91c0-1.45.15-1.98.43-2.5A3 3 0 014.4 3.17c.53-.28 1.06-.43 2.5-.43z"></path><path fill="#99a2ad" d="M6.75 6h5.5a.75.75 0 110 1.5h-5.5a.75.75 0 010-1.5zm0 3.25h6.5a.75.75 0 110 1.5h-6.5a.75.75 0 010-1.5zm0 3.25h4.5a.75.75 0 110 1.5h-4.5a.75.75 0 110-1.5z"></path></g></svg><svg width="64" height="64" fill="none" viewBox="-4 -4 64 64" id="settings_outline_56" xmlns="http://www.w3.org/2000/svg"><path fill="#71aaeb" fill-rule="evenodd" d="M37 28.15a9 9 0 11-17.98-.02 9 9 0 0117.98.02zm-9 5.99a6 6 0 10.02-11.99A6 6 0 0028 34.14z" clip-rule="evenodd"></path><path fill="#71aaeb" fill-rule="evenodd" d="M29.26 4c-.8 0-1.6.02-2.4 0-.4 0-1.84-.04-3.05.93-1.19.94-1.63 2.4-1.9 3.46a10.3 10.3 0 01-.88 2.23c-.84.34-1.65.73-2.43 1.17-.84-.16-1.64-.43-2.22-.7-1-.46-2.4-1.03-3.89-.7-1.51.32-2.39 1.46-2.64 1.79-.46.6-.94 1.18-1.42 1.76-.27.31-1.2 1.4-1.2 2.95-.02 1.51.83 2.77 1.5 3.64.4.54.85 1.33 1.2 2.17-.25.83-.45 1.68-.58 2.56-.67.59-1.4 1.08-2 1.38-.98.5-2.3 1.26-2.95 2.62-.67 1.4-.31 2.78-.21 3.18.19.73.36 1.47.5 2.21.1.4.38 1.8 1.6 2.76 1.19.95 2.7 1.05 3.8 1.07.65.01 1.5.13 2.35.36.51.74 1.08 1.44 1.68 2.1.03.87-.05 1.72-.18 2.36-.23 1.07-.47 2.56.18 3.93.66 1.4 1.97 2 2.34 2.17.69.32 1.37.65 2.04 1 .36.18 1.64.84 3.16.5 1.48-.33 2.51-1.44 3.22-2.28.43-.51 1.08-1.12 1.82-1.65.86.06 1.75.06 2.61 0 .73.53 1.38 1.14 1.82 1.65.7.84 1.74 1.95 3.22 2.28 1.51.34 2.8-.32 3.15-.5a48.2 48.2 0 012.04-1 4.68 4.68 0 002.34-2.17c.65-1.37.41-2.86.19-3.93-.14-.64-.22-1.49-.19-2.36.61-.66 1.17-1.36 1.68-2.1.85-.23 1.7-.35 2.35-.36 1.1-.02 2.62-.12 3.81-1.07 1.21-.95 1.5-2.36 1.59-2.76.15-.74.32-1.48.5-2.2.1-.4.46-1.8-.2-3.19-.66-1.36-1.98-2.12-2.96-2.62-.59-.3-1.32-.8-2-1.38-.13-.88-.32-1.73-.57-2.56.34-.84.8-1.63 1.2-2.17.67-.87 1.51-2.13 1.5-3.64 0-1.55-.93-2.64-1.2-2.95-.49-.58-.97-1.17-1.43-1.76-.25-.33-1.12-1.47-2.64-1.8-1.49-.32-2.9.25-3.89.71-.58.27-1.38.54-2.22.7-.77-.44-1.59-.83-2.43-1.17a10.3 10.3 0 01-.88-2.23A6.42 6.42 0 0032.4 5.1 4.45 4.45 0 0029.3 4h-.05zm8.9 42.74l-1.9.93c-.96.46-1.43.7-2.84-.97a13.43 13.43 0 00-3.36-2.8c-1.35.16-2.77.16-4.11 0a13.43 13.43 0 00-3.37 2.8c-1.4 1.67-1.88 1.43-2.83.97l-1.9-.93c-.95-.46-1.43-.7-.98-2.83.25-1.17.35-2.77.15-4.3a15.94 15.94 0 01-2.64-3.3c-1.43-.53-3.03-.8-4.24-.82-2.18-.04-2.3-.56-2.53-1.59l-.48-2.06c-.24-1.03-.36-1.54 1.59-2.54 1.08-.55 2.41-1.5 3.48-2.63.12-1.4.44-2.74.9-4a13.42 13.42 0 00-1.98-3.93c-1.31-1.75-.98-2.16-.31-2.98l1.33-1.64c.67-.83 1-1.24 2.98-.32 1.08.5 2.61.97 4.13 1.12 1.17-.78 2.45-1.4 3.8-1.85a13.42 13.42 0 001.78-3.96C25.36 7 25.89 7 26.94 7h2.3c.94 0 1.44.12 1.94 2.11.3 1.18.91 2.68 1.77 3.96 1.36.45 2.64 1.07 3.8 1.85 1.52-.15 3.06-.61 4.14-1.12 1.98-.92 2.31-.5 2.98.32l1.33 1.64c.66.82 1 1.23-.31 2.98-.74.98-1.53 2.43-1.99 3.92.47 1.27.78 2.62.91 4.01a13.43 13.43 0 003.48 2.63c1.94 1 1.82 1.51 1.59 2.54l-.48 2.06c-.24 1.03-.36 1.55-2.54 1.59-1.2.02-2.8.29-4.24.83a15.93 15.93 0 01-2.64 3.3c-.2 1.52-.1 3.12.15 4.3.45 2.13-.02 2.36-.97 2.82z" clip-rule="evenodd"></path></svg><svg width="36" height="36" viewBox="-4 -4 36 36" id="users_outline_28" x="72" y="64" xmlns="http://www.w3.org/2000/svg"><g fill="none" fill-rule="evenodd"><path d="M0 0h28v28H0z"></path><path d="M9 15c3.997 0 7.5 1.542 7.5 4.929 0 1.774-.69 2.571-2.147 2.571H3.647c-1.458 0-2.147-.797-2.147-2.571C1.5 16.542 5.003 15 9 15zm10.5 0c3.997 0 7.5 1.542 7.5 4.929 0 1.774-.69 2.571-2.147 2.571H19a1 1 0 010-2h5.913a.83.83 0 01.042.002l.013.001.002-.015c.01-.081.024-.22.029-.427l.001-.132C25 18.095 22.513 17 19.5 17c-.428 0-.898.03-1.37.09a1 1 0 11-.256-1.983A12.87 12.87 0 0119.5 15zM3.531 20.503l-.014.002-.013.007-.001.01.037.036-.009-.055zm10.937 0l-.008.055.037-.036c.003-.008-.001-.014-.014-.017l-.015-.002zm10.5 0l-.008.055.037-.036c.003-.008-.001-.014-.014-.017l-.015-.002zM9 17c-3.013 0-5.5 1.095-5.5 2.929 0 .28.017.462.03.56l.001.014.014-.001.019-.001h10.891l.013.002.002-.015c.013-.097.03-.28.03-.56C14.5 18.096 12.013 17 9 17zM19.5 5a4.25 4.25 0 014.25 4.25 4.25 4.25 0 01-4.25 4.25 4.25 4.25 0 01-4.25-4.25A4.25 4.25 0 0119.5 5zM9 5a4.25 4.25 0 014.25 4.25A4.25 4.25 0 019 13.5a4.25 4.25 0 01-4.25-4.25A4.25 4.25 0 019 5zm10.5 2a2.25 2.25 0 100 4.5 2.25 2.25 0 100-4.5zM9 7a2.25 2.25 0 100 4.5A2.25 2.25 0 109 7z" fill="#71aaeb" fill-rule="nonzero"></path></g></svg></svg>