<svg width="144" height="30" viewBox="0 0 144 30" fill="none" xmlns="http://www.w3.org/2000/svg">
<path d="M15.0021 28.8955C22.8291 28.8955 29.1741 22.5485 29.1741 14.719C29.1741 6.88957 22.8291 0.542542 15.0021 0.542542C7.17509 0.542542 0.830063 6.88957 0.830063 14.719C0.830063 22.5485 7.17509 28.8955 15.0021 28.8955Z" fill="white"/>
<path d="M14.958 26.7125C21.5208 26.7125 26.8411 21.3905 26.8411 14.8256C26.8411 8.26072 21.5208 2.93881 14.958 2.93881C8.39515 2.93881 3.07492 8.26072 3.07492 14.8256C3.07492 21.3905 8.39515 26.7125 14.958 26.7125Z" fill="#DE5833"/>
<path fill-rule="evenodd" clip-rule="evenodd" d="M0.270065 14.8373C0.270065 22.9582 6.85337 29.5415 14.9743 29.5415C23.0952 29.5415 29.6785 22.9582 29.6785 14.8373C29.6785 6.71637 23.0952 0.133057 14.9743 0.133057C6.85337 0.133057 0.270065 6.71637 0.270065 14.8373ZM28.2807 14.8419C28.2807 22.1932 22.3232 28.1525 14.9743 28.1525C7.62539 28.1525 1.66792 22.1932 1.66792 14.8419C1.66792 7.4907 7.62539 1.53135 14.9743 1.53135C22.3232 1.53135 28.2807 7.4907 28.2807 14.8419Z" fill="#DE5833"/>
<mask id="mask0" mask-type="alpha" maskUnits="userSpaceOnUse" x="3" y="2" width="24" height="25">
<path fill-rule="evenodd" clip-rule="evenodd" d="M26.891 14.8084C26.891 21.3813 21.5456 26.7291 14.9741 26.7291C8.40393 26.7291 3.05856 21.3811 3.05856 14.8084C3.05856 8.2362 8.40416 2.88892 14.9741 2.88892C21.5454 2.88892 26.891 8.2362 26.891 14.8084Z" fill="white"/>
</mask>
<g mask="url(#mask0)">
<path d="M19.9583 32.9637C19.5301 30.9932 17.0429 26.5328 16.0994 24.6467C15.1567 22.7601 14.212 20.1016 14.6421 18.3862C14.7201 18.0742 13.8252 15.6967 14.0824 15.5286C16.0835 14.2231 16.6104 15.6711 17.4116 15.0857C17.8239 14.783 18.3841 15.3348 18.5265 14.8336C19.0396 13.0339 17.8118 9.89605 16.4411 8.52466C15.9929 8.07776 15.3067 7.79687 14.5318 7.64774C14.2337 7.24032 13.7531 6.84859 13.0724 6.48731C12.3144 6.0837 10.666 5.5507 9.81097 5.40871C9.21846 5.31119 9.0846 5.47697 8.83162 5.51835C9.06748 5.53928 10.1866 6.0925 10.4044 6.12461C10.1866 6.27183 9.54682 6.11795 9.13857 6.30109C8.93291 6.39432 8.77907 6.74751 8.7805 6.91471C9.94793 6.79675 11.7702 6.91091 12.8463 7.3904C11.9899 7.48791 10.6874 7.5966 10.1272 7.89105C8.49898 8.74918 7.77974 10.7535 8.20843 13.1552C8.63736 15.5514 10.5238 24.298 11.1239 27.2185C11.7243 30.1353 9.83808 32.0202 8.63808 32.5352L9.92391 32.6215L9.4957 33.565C11.0374 33.736 12.7519 33.2227 12.7519 33.2227C12.41 34.1658 10.0946 34.5099 10.0946 34.5099C10.0946 34.5099 11.21 34.852 13.0092 34.1658C14.8109 33.4801 15.9249 33.0508 15.9249 33.0508L16.7818 35.2801L18.4114 33.6516L19.0974 35.3666C19.1007 35.3664 20.387 34.9366 19.9583 32.9637Z" fill="#D5D7D8"/>
<path d="M20.4762 32.5639C20.0494 30.5925 17.5621 26.132 16.6177 24.2445C15.6738 22.357 14.7311 19.6989 15.1602 17.9843C15.2399 17.673 15.2413 16.3984 15.5 16.2293C17.4998 14.9226 17.3574 16.1855 18.1599 15.6002C18.5736 15.2979 18.9048 14.9328 19.0486 14.4319C19.5632 12.631 18.3339 9.49432 16.9627 8.12222C16.516 7.67532 15.8291 7.39395 15.0551 7.24554C14.7574 6.83693 14.2774 6.44616 13.5976 6.0844C12.3158 5.4037 10.7268 5.13161 9.2546 5.39871C9.48999 5.42011 10.0288 5.90721 10.2456 5.93932C9.91725 6.16194 9.04418 6.13316 9.04988 6.6281C10.2187 6.51109 11.4996 6.69589 12.5769 7.17442C11.7205 7.27194 10.9232 7.48362 10.3631 7.77925C8.73342 8.63619 8.30496 10.3508 8.73342 12.7535C9.16306 15.1549 11.0497 23.9018 11.6475 26.816C12.2483 29.7319 10.3631 31.6175 9.16306 32.1327L10.4489 32.2181L10.0207 33.163C11.5624 33.3345 13.2769 32.8208 13.2769 32.8208C12.935 33.766 10.6196 34.1066 10.6196 34.1066C10.6196 34.1066 11.7338 34.4488 13.5341 33.7629C15.3366 33.0772 16.4513 32.6479 16.4513 32.6479L17.3082 34.8772L18.9376 33.2472L19.625 34.9633C19.6212 34.9649 20.9061 34.5359 20.4762 32.5639Z" fill="white"/>
<path d="M10.6208 12.874C10.6208 12.3762 11.0233 11.9733 11.5217 11.9733C12.0186 11.9733 12.4216 12.3762 12.4216 12.874C12.4216 13.3721 12.0186 13.7745 11.5217 13.7745C11.0233 13.7747 10.6208 13.3721 10.6208 12.874Z" fill="#2D4F8E"/>
<path d="M11.6266 12.5981C11.6266 12.4557 11.7418 12.3413 11.8825 12.3413C12.0244 12.3413 12.1395 12.4557 12.1395 12.5981C12.1395 12.74 12.0244 12.8552 11.8825 12.8552C11.742 12.8555 11.6266 12.74 11.6266 12.5981Z" fill="white"/>
<path d="M16.7661 12.3398C16.7661 11.9134 17.1135 11.5669 17.5393 11.5669C17.9675 11.5669 18.3135 11.9134 18.3135 12.3398C18.3135 12.7682 17.9675 13.1147 17.5393 13.1147C17.1135 13.1147 16.7661 12.7682 16.7661 12.3398Z" fill="#2D4F8E"/>
<path d="M17.6168 12.1161C17.6168 11.9875 17.7219 11.882 17.8492 11.882C17.982 11.882 18.0838 11.9875 18.0838 12.1161C18.0838 12.2463 17.982 12.3499 17.8492 12.3499C17.7219 12.3499 17.6168 12.2463 17.6168 12.1161Z" fill="white"/>
<path d="M11.7775 10.2642C11.7775 10.2642 11.099 9.95716 10.4392 10.372C9.78055 10.7863 9.8048 11.2099 9.8048 11.2099C9.8048 11.2099 9.45457 10.429 10.388 10.0464C11.3225 9.66367 11.7775 10.2642 11.7775 10.2642Z" fill="url(#paint0_linear)"/>
<path d="M18.0051 10.2024C18.0051 10.2024 17.5174 9.92364 17.1389 9.92839C16.3612 9.93862 16.1493 10.2823 16.1493 10.2823C16.1493 10.2823 16.2799 9.46294 17.2744 9.62729C17.8137 9.71695 18.0051 10.2024 18.0051 10.2024Z" fill="url(#paint1_linear)"/>
<path d="M14.2774 16.3475C14.3675 15.8026 15.7751 14.7718 16.7718 14.7094C17.7707 14.6464 18.0819 14.6607 18.9141 14.4614C19.7486 14.2621 21.8945 13.7269 22.4884 13.4525C23.0838 13.1775 25.6041 13.5885 23.8273 14.5793C23.0588 15.0096 20.9876 15.7997 19.5066 16.2411C18.0279 16.6838 17.1313 15.8187 16.6391 16.5458C16.2478 17.1242 16.5597 17.9162 18.327 18.0806C20.7135 18.3018 23.0015 17.0053 23.2533 17.6941C23.5063 18.3827 21.2026 19.242 19.7998 19.2693C18.3986 19.2957 15.5744 18.3427 15.1502 18.0475C14.7256 17.7531 14.1599 17.0653 14.2774 16.3475Z" fill="#FDD20A"/>
<path d="M15.3576 23.2114C15.3576 23.2114 12.0046 21.4226 11.9499 22.1482C11.8933 22.8751 11.9499 25.8369 12.3406 26.061C12.7319 26.2841 15.5257 24.6082 15.5257 24.6082L15.3576 23.2114Z" fill="#65BC46"/>
<path d="M16.6422 23.0986C16.6422 23.0986 18.9331 21.366 19.4369 21.4778C19.9388 21.5917 20.0508 25.1667 19.6036 25.3377C19.1564 25.5018 16.5345 24.4308 16.5345 24.4308L16.6422 23.0986Z" fill="#65BC46"/>
<path d="M14.5458 23.4009C14.5458 24.574 14.3773 25.0775 14.8811 25.1893C15.3825 25.3018 16.3324 25.1893 16.6686 24.9662C17.0039 24.7431 16.7238 23.2349 16.6134 22.9528C16.5 22.6736 14.5458 22.8977 14.5458 23.4009Z" fill="#43A244"/>
<path d="M14.7591 23.14C14.7591 24.3133 14.591 24.8168 15.0941 24.9284C15.5948 25.0423 16.5454 24.9284 16.8819 24.7053C17.2171 24.4815 16.9368 22.974 16.8258 22.6917C16.7133 22.4127 14.7591 22.6377 14.7591 23.14Z" fill="#65BC46"/>
</g>
<path fill-rule="evenodd" clip-rule="evenodd" d="M37.7553 8.12054H42.4677C46.966 8.12054 49.0366 11.5527 49.0366 14.6927C49.0366 18.0518 46.966 21.4839 42.4677 21.4839H37.6839V8.12054H37.7553ZM47.2516 14.6927C47.2516 12.3559 45.7522 9.94613 42.4677 9.94613H39.4689V19.6583H42.4677C46.0378 19.6583 47.2516 17.0294 47.2516 14.6927Z" fill="#444444"/>
<path d="M57.6762 17.1025C57.6762 18.782 56.5337 20.0234 54.9629 20.0234C53.3207 20.0234 52.3211 19.0011 52.3211 17.2485V12.0638H50.6075V17.3215C50.6075 20.0234 52.1783 21.7029 54.6773 21.7029C55.9625 21.7029 56.9621 21.1918 57.7476 20.2425L57.819 21.5569H59.3898V12.0638H57.6762V17.1025Z" fill="#444444"/>
<path d="M69.3859 20.0964L68.3149 19.0011L68.2435 19.0741C67.6723 19.6583 66.8869 20.0234 65.9587 20.0234C64.3879 20.0234 62.817 19.0011 62.817 16.8103C62.817 14.9117 64.1023 13.5973 65.9587 13.5973C66.8155 13.5973 67.6009 13.9624 68.1721 14.4736L68.2435 14.5466L69.3145 13.3782L69.2431 13.3052C68.3149 12.3559 67.1725 11.9178 65.8873 11.9178C62.9598 11.9178 61.032 13.8894 61.032 16.8103C61.032 20.1694 63.4596 21.7029 65.8873 21.7029C67.2439 21.7029 68.3863 21.1918 69.3145 20.2425L69.3859 20.0964Z" fill="#444444"/>
<path d="M78.0969 12.2829V12.0638H76.0976L72.5276 15.788V8.19357H70.8139V21.4839H72.5276V17.3215L76.6688 21.4839H78.5967V21.2648L73.9556 16.5183L78.0969 12.2829Z" fill="#444444"/>
<path fill-rule="evenodd" clip-rule="evenodd" d="M80.0961 8.12054H84.7371C89.2354 8.12054 91.306 11.5527 91.3774 14.6927C91.3774 18.0518 89.3068 21.4839 84.8085 21.4839H80.0247V8.12054H80.0961ZM89.521 14.6927C89.521 12.3559 88.0216 9.94613 84.7371 9.94613H81.7383V19.6583H84.7371C88.3072 19.6583 89.521 17.0294 89.521 14.6927Z" fill="#444444"/>
<path d="M99.9456 17.1025C99.9456 18.782 98.8031 20.0234 97.2323 20.0234C95.5901 20.0234 94.5905 19.0011 94.5905 17.2485V12.0638H92.8769V17.3215C92.8769 20.0234 94.4477 21.7029 96.9467 21.7029C98.2319 21.7029 99.2316 21.1918 100.017 20.2425L100.088 21.5569H101.659V12.0638H99.9456V17.1025Z" fill="#444444"/>
<path d="M111.655 20.0964L110.584 19.0011L110.513 19.0741C109.942 19.6583 109.085 20.0234 108.228 20.0234C106.657 20.0234 105.086 19.0011 105.086 16.8103C105.086 14.9117 106.372 13.5973 108.228 13.5973C109.085 13.5973 109.87 13.9624 110.442 14.4736L110.513 14.5466L111.584 13.3782L111.513 13.3052C110.584 12.3559 109.442 11.9178 108.157 11.9178C105.229 11.9178 103.301 13.8894 103.301 16.8103C103.301 20.1694 105.729 21.7029 108.157 21.7029C109.513 21.7029 110.656 21.1918 111.584 20.2425L111.655 20.0964Z" fill="#444444"/>
<path d="M120.366 12.2829V12.0638H118.367L114.797 15.788V8.19357H113.083V21.4839H114.797V17.3215L118.938 21.4839H120.937V21.2648L116.225 16.5183L120.366 12.2829Z" fill="#444444"/>
<path d="M127.364 15.788H131.362V18.782C130.434 19.5853 129.22 20.0234 127.935 20.0234C124.436 20.0234 122.937 17.4676 122.937 14.9848C122.937 12.4289 124.508 9.65403 127.935 9.65403C129.291 9.65403 130.719 10.2382 131.648 11.1875L131.719 11.2606L132.79 10.0192L132.719 9.94613C131.433 8.6317 129.72 7.97449 127.935 7.97449C125.936 7.97449 124.293 8.6317 123.079 9.87311C121.866 11.1145 121.152 12.9401 121.152 14.9848C121.152 18.1248 122.937 21.776 127.935 21.776C129.934 21.776 131.576 21.0457 133.004 19.5122V14.1815H127.364V15.788Z" fill="#444444"/>
<path fill-rule="evenodd" clip-rule="evenodd" d="M134.432 16.8104C134.432 13.9624 136.431 11.8448 139.216 11.8448C142.001 11.8448 144 13.8894 144 16.8104C144 19.6583 142.001 21.703 139.216 21.703C136.431 21.703 134.432 19.6583 134.432 16.8104ZM136.146 16.8104C136.146 18.636 137.431 20.0234 139.216 20.0234C141.001 20.0234 142.286 18.709 142.429 16.8104C142.429 14.8387 141.073 13.4513 139.288 13.4513C137.431 13.4513 136.146 14.8387 136.146 16.8104Z" fill="#444444"/>
<defs>
<linearGradient id="paint0_linear" x1="9.74046" y1="11.2098" x2="11.7777" y2="11.2098" gradientUnits="userSpaceOnUse">
<stop offset="0.0056" stop-color="#6176B9"/>
<stop offset="0.691" stop-color="#394A9F"/>
</linearGradient>
<linearGradient id="paint1_linear" x1="16.1494" y1="10.2823" x2="18.0051" y2="10.2823" gradientUnits="userSpaceOnUse">
<stop offset="0.0056" stop-color="#6176B9"/>
<stop offset="0.691" stop-color="#394A9F"/>
</linearGradient>
</defs>
</svg>
