<svg width="144" height="30" viewBox="0 0 144 30" fill="none" xmlns="http://www.w3.org/2000/svg">
<path fill-rule="evenodd" clip-rule="evenodd" d="M14.9744 28.3621C22.4613 28.3621 28.5306 22.2927 28.5306 14.8058C28.5306 7.31886 22.4613 1.24951 14.9744 1.24951C7.48744 1.24951 1.41809 7.31886 1.41809 14.8058C1.41809 22.2927 7.48744 28.3621 14.9744 28.3621ZM14.958 26.7124C21.5208 26.7124 26.8411 21.3905 26.8411 14.8256C26.8411 8.26069 21.5208 2.93878 14.958 2.93878C8.39516 2.93878 3.07492 8.26069 3.07492 14.8256C3.07492 21.3905 8.39516 26.7124 14.958 26.7124Z" fill="white"/>
<mask id="mask0" mask-type="alpha" maskUnits="userSpaceOnUse" x="3" y="2" width="24" height="25">
<path fill-rule="evenodd" clip-rule="evenodd" d="M26.891 14.8084C26.891 21.3813 21.5456 26.729 14.9741 26.729C8.40396 26.729 3.05859 21.3811 3.05859 14.8084C3.05859 8.23617 8.40419 2.88889 14.9741 2.88889C21.5454 2.88889 26.891 8.23617 26.891 14.8084Z" fill="white"/>
</mask>
<g mask="url(#mask0)">
<path d="M19.9584 32.9637C19.5302 30.9932 17.0429 26.5327 16.0994 24.6467C15.1567 22.7601 14.212 20.1015 14.6422 18.3862C14.7202 18.0742 13.8252 15.6967 14.0825 15.5286C16.0835 14.2231 16.6104 15.671 17.4117 15.0857C17.8239 14.7829 18.3841 15.3347 18.5265 14.8336C19.0396 13.0338 17.8118 9.89602 16.4411 8.52463C15.9929 8.07772 15.3067 7.79684 14.5318 7.64771C14.2337 7.24029 13.7532 6.84856 13.0724 6.48728C12.3144 6.08367 10.666 5.55067 9.81101 5.40868C9.21849 5.31116 9.08463 5.47694 8.83165 5.51832C9.06751 5.53925 10.1867 6.09247 10.4045 6.12458C10.1867 6.2718 9.54685 6.11792 9.1386 6.30106C8.93294 6.39429 8.7791 6.74748 8.78053 6.91468C9.94796 6.79672 11.7702 6.91088 12.8463 7.39037C11.9899 7.48788 10.6874 7.59657 10.1272 7.89102C8.49901 8.74915 7.77977 10.7534 8.20846 13.1551C8.63739 15.5514 10.5238 24.298 11.1239 27.2184C11.7243 30.1353 9.83811 32.0202 8.63811 32.5351L9.92394 32.6215L9.49573 33.565C11.0374 33.736 12.7519 33.2227 12.7519 33.2227C12.41 34.1658 10.0947 34.5099 10.0947 34.5099C10.0947 34.5099 11.21 34.8519 13.0092 34.1658C14.811 33.4801 15.9249 33.0508 15.9249 33.0508L16.7818 35.28L18.4115 33.6515L19.0974 35.3666C19.1007 35.3664 20.3871 34.9366 19.9584 32.9637Z" fill="#D5D7D8"/>
<path d="M20.4762 32.5639C20.0495 30.5924 17.5622 26.132 16.6178 24.2445C15.6739 22.357 14.7311 19.6988 15.1603 17.9843C15.2399 17.6729 15.2414 16.3983 15.5001 16.2292C17.4999 14.9225 17.3575 16.1855 18.1599 15.6001C18.5736 15.2978 18.9049 14.9328 19.0487 14.4319C19.5632 12.6309 18.334 9.49429 16.9628 8.12219C16.516 7.67529 15.8291 7.39392 15.0552 7.24551C14.7575 6.8369 14.2775 6.44613 13.5977 6.08437C12.3159 5.40367 10.7269 5.13158 9.25466 5.39868C9.49005 5.42008 10.0288 5.90718 10.2457 5.93929C9.91731 6.16191 9.04424 6.13313 9.04995 6.62807C10.2188 6.51106 11.4996 6.69586 12.577 7.17439C11.7205 7.27191 10.9233 7.48359 10.3631 7.77922C8.73348 8.63616 8.30503 10.3508 8.73348 12.7534C9.16312 15.1549 11.0498 23.9017 11.6475 26.816C12.2484 29.7319 10.3631 31.6175 9.16312 32.1327L10.449 32.2181L10.0207 33.163C11.5624 33.3345 13.2769 32.8208 13.2769 32.8208C12.935 33.7659 10.6197 34.1065 10.6197 34.1065C10.6197 34.1065 11.7338 34.4488 13.5342 33.7628C15.3367 33.0771 16.4514 32.6478 16.4514 32.6478L17.3083 34.8771L18.9377 33.2472L19.625 34.9632C19.6212 34.9649 20.9061 34.5358 20.4762 32.5639Z" fill="white"/>
<path d="M10.6208 12.874C10.6208 12.3762 11.0234 11.9733 11.5217 11.9733C12.0187 11.9733 12.4217 12.3762 12.4217 12.874C12.4217 13.372 12.0187 13.7745 11.5217 13.7745C11.0234 13.7747 10.6208 13.372 10.6208 12.874Z" fill="#2D4F8E"/>
<path d="M11.6266 12.5981C11.6266 12.4557 11.7418 12.3413 11.8826 12.3413C12.0244 12.3413 12.1396 12.4557 12.1396 12.5981C12.1396 12.7399 12.0244 12.8552 11.8826 12.8552C11.7421 12.8554 11.6266 12.7399 11.6266 12.5981Z" fill="white"/>
<path d="M16.7661 12.3398C16.7661 11.9134 17.1135 11.5668 17.5393 11.5668C17.9675 11.5668 18.3135 11.9134 18.3135 12.3398C18.3135 12.7682 17.9675 13.1147 17.5393 13.1147C17.1135 13.1147 16.7661 12.7682 16.7661 12.3398Z" fill="#2D4F8E"/>
<path d="M17.6168 12.116C17.6168 11.9875 17.7219 11.882 17.8492 11.882C17.982 11.882 18.0838 11.9875 18.0838 12.116C18.0838 12.2463 17.982 12.3498 17.8492 12.3498C17.7219 12.3498 17.6168 12.2463 17.6168 12.116Z" fill="white"/>
<path d="M11.7776 10.2642C11.7776 10.2642 11.099 9.95713 10.4392 10.3719C9.78059 10.7862 9.80484 11.2098 9.80484 11.2098C9.80484 11.2098 9.45461 10.429 10.3881 10.0463C11.3225 9.66364 11.7776 10.2642 11.7776 10.2642Z" fill="url(#paint0_linear)"/>
<path d="M18.0051 10.2024C18.0051 10.2024 17.5175 9.92361 17.1389 9.92836C16.3612 9.93859 16.1494 10.2823 16.1494 10.2823C16.1494 10.2823 16.2799 9.46291 17.2745 9.62726C17.8137 9.71692 18.0051 10.2024 18.0051 10.2024Z" fill="url(#paint1_linear)"/>
<path d="M14.2774 16.3474C14.3675 15.8025 15.7751 14.7717 16.7718 14.7094C17.7707 14.6464 18.0819 14.6607 18.9141 14.4613C19.7487 14.262 21.8945 13.7269 22.4884 13.4524C23.0838 13.1775 25.6041 13.5885 23.8273 14.5793C23.0588 15.0096 20.9877 15.7997 19.5066 16.2411C18.028 16.6837 17.1313 15.8187 16.6392 16.5458C16.2478 17.1242 16.5597 17.9162 18.3271 18.0806C20.7135 18.3018 23.0015 17.0053 23.2533 17.6941C23.5063 18.3826 21.2026 19.2419 19.7998 19.2693C18.3986 19.2957 15.5744 18.3427 15.1503 18.0475C14.7256 17.7531 14.16 17.0652 14.2774 16.3474Z" fill="#FDD20A"/>
<path d="M15.3576 23.2114C15.3576 23.2114 12.0047 21.4226 11.95 22.1482C11.8934 22.875 11.95 25.8369 12.3406 26.0609C12.732 26.284 15.5257 24.6082 15.5257 24.6082L15.3576 23.2114Z" fill="#65BC46"/>
<path d="M16.6423 23.0986C16.6423 23.0986 18.9331 21.3659 19.437 21.4777C19.9389 21.5916 20.0509 25.1666 19.6036 25.3376C19.1564 25.5018 16.5345 24.4308 16.5345 24.4308L16.6423 23.0986Z" fill="#65BC46"/>
<path d="M14.5459 23.4009C14.5459 24.5739 14.3773 25.0774 14.8811 25.1892C15.3826 25.3017 16.3325 25.1892 16.6687 24.9661C17.0039 24.743 16.7238 23.2349 16.6135 22.9528C16.5001 22.6736 14.5459 22.8976 14.5459 23.4009Z" fill="#43A244"/>
<path d="M14.7592 23.14C14.7592 24.3133 14.591 24.8168 15.0942 24.9283C15.5949 25.0423 16.5455 24.9283 16.8819 24.7052C17.2172 24.4814 16.9368 22.974 16.8258 22.6917C16.7133 22.4127 14.7592 22.6377 14.7592 23.14Z" fill="#65BC46"/>
</g>
<path fill-rule="evenodd" clip-rule="evenodd" d="M37.7553 8.12054H42.4678C46.966 8.12054 49.0367 11.5527 49.0367 14.6927C49.0367 18.0518 46.966 21.4839 42.4678 21.4839H37.6839V8.12054H37.7553ZM47.2516 14.6927C47.2516 12.3559 45.7522 9.94613 42.4677 9.94613H39.4689V19.6583H42.4677C46.0378 19.6583 47.2516 17.0294 47.2516 14.6927Z" fill="white"/>
<path d="M57.6761 17.1025C57.6761 18.782 56.5337 20.0234 54.9629 20.0234C53.3207 20.0234 52.321 19.0011 52.321 17.2485V12.0638H50.6074V17.3215C50.6074 20.0234 52.1782 21.7029 54.6773 21.7029C55.9625 21.7029 56.9621 21.1918 57.7475 20.2425L57.8189 21.5569H59.3897V12.0638H57.6761V17.1025Z" fill="white"/>
<path d="M69.3859 20.0964L68.3149 19.0011L68.2435 19.0741C67.6723 19.6583 66.8869 20.0234 65.9587 20.0234C64.3878 20.0234 62.817 19.0011 62.817 16.8103C62.817 14.9117 64.1022 13.5973 65.9587 13.5973C66.8155 13.5973 67.6009 13.9624 68.1721 14.4736L68.2435 14.5466L69.3145 13.3782L69.2431 13.3052C68.3149 12.3559 67.1725 11.9178 65.8873 11.9178C62.9598 11.9178 61.032 13.8894 61.032 16.8103C61.032 20.1694 63.4596 21.7029 65.8873 21.7029C67.2439 21.7029 68.3863 21.1918 69.3145 20.2425L69.3859 20.0964Z" fill="white"/>
<path d="M78.0969 12.2829V12.0638H76.0976L72.5276 15.788V8.19357H70.814V21.4839H72.5276V17.3215L76.6688 21.4839H78.5967V21.2648L73.9556 16.5183L78.0969 12.2829Z" fill="white"/>
<path fill-rule="evenodd" clip-rule="evenodd" d="M80.0961 8.12054H84.7371C89.2354 8.12054 91.306 11.5527 91.3774 14.6927C91.3774 18.0518 89.3068 21.4839 84.8085 21.4839H80.0247V8.12054H80.0961ZM89.521 14.6927C89.521 12.3559 88.0216 9.94613 84.7372 9.94613H81.7383V19.6583H84.7372C88.3072 19.6583 89.521 17.0294 89.521 14.6927Z" fill="white"/>
<path d="M99.9456 17.1025C99.9456 18.782 98.8032 20.0234 97.2324 20.0234C95.5901 20.0234 94.5905 19.0011 94.5905 17.2485V12.0638H92.8769V17.3215C92.8769 20.0234 94.4477 21.7029 96.9468 21.7029C98.232 21.7029 99.2316 21.1918 100.017 20.2425L100.088 21.5569H101.659V12.0638H99.9456V17.1025Z" fill="white"/>
<path d="M111.655 20.0964L110.584 19.0011L110.513 19.0741C109.942 19.6583 109.085 20.0234 108.228 20.0234C106.657 20.0234 105.086 19.0011 105.086 16.8103C105.086 14.9117 106.372 13.5973 108.228 13.5973C109.085 13.5973 109.87 13.9624 110.441 14.4736L110.513 14.5466L111.584 13.3782L111.513 13.3052C110.584 12.3559 109.442 11.9178 108.157 11.9178C105.229 11.9178 103.301 13.8894 103.301 16.8103C103.301 20.1694 105.729 21.7029 108.157 21.7029C109.513 21.7029 110.656 21.1918 111.584 20.2425L111.655 20.0964Z" fill="white"/>
<path d="M120.366 12.2829V12.0638H118.367L114.797 15.788V8.19357H113.083V21.4839H114.797V17.3215L118.938 21.4839H120.937V21.2648L116.225 16.5183L120.366 12.2829Z" fill="white"/>
<path d="M127.364 15.788H131.362V18.782C130.434 19.5853 129.22 20.0234 127.935 20.0234C124.436 20.0234 122.937 17.4676 122.937 14.9848C122.937 12.4289 124.507 9.65403 127.935 9.65403C129.291 9.65403 130.719 10.2382 131.648 11.1875L131.719 11.2606L132.79 10.0192L132.719 9.94613C131.433 8.6317 129.72 7.97449 127.935 7.97449C125.935 7.97449 124.293 8.6317 123.079 9.87311C121.866 11.1145 121.152 12.9401 121.152 14.9848C121.152 18.1248 122.937 21.776 127.935 21.776C129.934 21.776 131.576 21.0457 133.004 19.5122V14.1815H127.364V15.788Z" fill="white"/>
<path fill-rule="evenodd" clip-rule="evenodd" d="M134.432 16.8104C134.432 13.9624 136.431 11.8448 139.216 11.8448C142.001 11.8448 144 13.8894 144 16.8104C144 19.6583 142.001 21.703 139.216 21.703C136.431 21.703 134.432 19.6583 134.432 16.8104ZM136.146 16.8104C136.146 18.636 137.431 20.0234 139.216 20.0234C141.001 20.0234 142.286 18.709 142.429 16.8104C142.429 14.8387 141.073 13.4513 139.288 13.4513C137.431 13.4513 136.146 14.8387 136.146 16.8104Z" fill="white"/>
<defs>
<linearGradient id="paint0_linear" x1="9.7405" y1="11.2098" x2="11.7778" y2="11.2098" gradientUnits="userSpaceOnUse">
<stop offset="0.0056" stop-color="#6176B9"/>
<stop offset="0.691" stop-color="#394A9F"/>
</linearGradient>
<linearGradient id="paint1_linear" x1="16.1494" y1="10.2822" x2="18.0051" y2="10.2822" gradientUnits="userSpaceOnUse">
<stop offset="0.0056" stop-color="#6176B9"/>
<stop offset="0.691" stop-color="#394A9F"/>
</linearGradient>
</defs>
</svg>
